<svg version="1.1" viewBox="0.0 0.0 1719.984251968504 266.67979002624674" fill="none" stroke="none" stroke-linecap="square" stroke-miterlimit="10" xmlns:xlink="http://www.w3.org/1999/xlink" xmlns="http://www.w3.org/2000/svg"><clipPath id="p.0"><path d="m0 0l1719.9843 0l0 266.67978l-1719.9843 0l0 -266.67978z" clip-rule="nonzero"/></clipPath><g clip-path="url(#p.0)"><path fill="#000000" fill-opacity="0.0" d="m0 0l1719.9843 0l0 266.67978l-1719.9843 0z" fill-rule="evenodd"/><defs><linearGradient id="p.1" gradientUnits="userSpaceOnUse" gradientTransform="matrix(8.94432119985894 0.0 0.0 8.94432119985894 0.0 0.0)" spreadMethod="pad" x1="3.7051911718051014" y1="15.522734763321022" x2="3.705158789621981" y2="24.467055963121346"><stop offset="0.0" stop-color="#d4e5f5"/><stop offset="1.0" stop-color="#70a4d5"/></linearGradient></defs><path fill="url(#p.1)" d="m33.14042 178.8412l0 0c0 -22.091385 17.908611 -40.0 40.0 -40.0l163.71652 0l0 0c10.608673 0 20.782822 4.214279 28.284286 11.715729c7.5014343 7.501465 11.715729 17.675613 11.715729 28.284271l0 0l0 0c0 22.0914 -17.90863 40.0 -40.000015 40.0l-163.71652 0c-22.091389 0 -40.0 -17.9086 -40.0 -40.0z" fill-rule="evenodd"/><path stroke="#000000" stroke-width="1.0" stroke-linejoin="round" stroke-linecap="butt" d="m33.14042 178.8412l0 0c0 -22.091385 17.908611 -40.0 40.0 -40.0l163.71652 0l0 0c10.608673 0 20.782822 4.214279 28.284286 11.715729c7.5014343 7.501465 11.715729 17.675613 11.715729 28.284271l0 0l0 0c0 22.0914 -17.90863 40.0 -40.000015 40.0l-163.71652 0c-22.091389 0 -40.0 -17.9086 -40.0 -40.0z" fill-rule="evenodd"/><path fill="#000000" d="m98.56489 189.25496l2.15625 0.3125q0.140625 1.0 0.765625 1.46875q0.828125 0.609375 2.25 0.609375q1.546875 0 2.390625 -0.625q0.84375 -0.609375 1.140625 -1.71875q0.171875 -0.6875 0.15625 -2.859375q-1.453125 1.71875 -3.625 1.71875q-2.71875 0 -4.203125 -1.953125q-1.484375 -1.953125 -1.484375 -4.6875q0 -1.875 0.671875 -3.46875q0.6875 -1.59375 1.984375 -2.453125q1.296875 -0.875 3.03125 -0.875q2.328125 0 3.84375 1.890625l0 -1.59375l2.046875 0l0 11.359375q0 3.0625 -0.625 4.34375q-0.625 1.28125 -1.984375 2.015625q-1.34375 0.75 -3.328125 0.75q-2.34375 0 -3.796875 -1.0625q-1.4375 -1.046875 -1.390625 -3.171875zm1.84375 -7.890625q0 2.578125 1.015625 3.765625q1.03125 1.1875 2.578125 1.1875q1.53125 0 2.5625 -1.171875q1.046875 -1.1875 1.046875 -3.71875q0 -2.40625 -1.078125 -3.625q-1.0625 -1.234375 -2.5625 -1.234375q-1.484375 0 -2.53125 1.21875q-1.03125 1.203125 -1.03125 3.578125zm12.664429 -8.78125l0 -2.546875l2.21875 0l0 2.546875l-2.21875 0zm0 15.578125l0 -13.140625l2.21875 0l0 13.140625l-2.21875 0zm10.470856 -1.984375l0.3125 1.953125q-0.9375 0.203125 -1.671875 0.203125q-1.21875 0 -1.890625 -0.375q-0.65625 -0.390625 -0.9375 -1.015625q-0.265625 -0.625 -0.265625 -2.625l0 -7.5625l-1.640625 0l0 -1.734375l1.640625 0l0 -3.25l2.21875 -1.328125l0 4.578125l2.234375 0l0 1.734375l-2.234375 0l0 7.6875q0 0.953125 0.109375 1.234375q0.125 0.265625 0.390625 0.421875q0.265625 0.15625 0.75 0.15625q0.375 0 0.984375 -0.078125zm17.777077 -2.828125l2.1875 0.28125q-0.34375 2.265625 -1.828125 3.546875q-1.484375 1.28125 -3.625 1.28125q-2.703125 0 -4.34375 -1.765625q-1.640625 -1.765625 -1.640625 -5.046875q0 -2.125 0.703125 -3.71875q0.71875 -1.59375 2.15625 -2.390625q1.4375 -0.8125 3.125 -0.8125q2.140625 0 3.5 1.09375q1.359375 1.078125 1.75 3.0625l-2.171875 0.34375q-0.296875 -1.328125 -1.09375 -1.984375q-0.78125 -0.671875 -1.890625 -0.671875q-1.6875 0 -2.734375 1.203125q-1.046875 1.203125 -1.046875 3.8125q0 2.640625 1.015625 3.84375q1.015625 1.203125 2.640625 1.203125q1.3125 0 2.1875 -0.796875q0.875 -0.8125 1.109375 -2.484375zm3.2734375 -1.75q0 -3.65625 2.03125 -5.40625q1.6875 -1.46875 4.125 -1.46875q2.703125 0 4.421875 1.78125q1.71875 1.78125 1.71875 4.90625q0 2.53125 -0.765625 3.984375q-0.75 1.453125 -2.203125 2.265625q-1.453125 0.796875 -3.171875 0.796875q-2.765625 0 -4.46875 -1.765625q-1.6875 -1.765625 -1.6875 -5.09375zm2.28125 0q0 2.515625 1.09375 3.78125q1.109375 1.25 2.78125 1.25q1.65625 0 2.75 -1.265625q1.109375 -1.265625 1.109375 -3.84375q0 -2.4375 -1.109375 -3.6875q-1.109375 -1.265625 -2.75 -1.265625q-1.671875 0 -2.78125 1.25q-1.09375 1.25 -1.09375 3.78125zm12.633179 6.5625l0 -13.140625l1.984375 0l0 1.84375q0.625 -0.953125 1.640625 -1.546875q1.03125 -0.59375 2.34375 -0.59375q1.46875 0 2.390625 0.609375q0.9375 0.609375 1.328125 1.703125q1.546875 -2.3125 4.0468597 -2.3125q1.953125 0 3.0 1.09375q1.0625 1.078125 1.0625 3.328125l0 9.015625l-2.21875 0l0 -8.28125q0 -1.328125 -0.21875 -1.90625q-0.21875 -0.59375 -0.78125 -0.953125q-0.5625 -0.359375 -1.3281097 -0.359375q-1.390625 0 -2.3125 0.921875q-0.90625 0.921875 -0.90625 2.953125l0 7.625l-2.234375 0l0 -8.53125q0 -1.484375 -0.546875 -2.21875q-0.53125 -0.75 -1.78125 -0.75q-0.9375 0 -1.734375 0.5q-0.796875 0.484375 -1.15625 1.4375q-0.359375 0.953125 -0.359375 2.75l0 6.8125l-2.21875 0zm21.098526 0l0 -13.140625l1.984375 0l0 1.84375q0.625 -0.953125 1.640625 -1.546875q1.03125 -0.59375 2.34375 -0.59375q1.46875 0 2.390625 0.609375q0.9375 0.609375 1.328125 1.703125q1.546875 -2.3125 4.046875 -2.3125q1.953125 0 3.0 1.09375q1.0625 1.078125 1.0625 3.328125l0 9.015625l-2.21875 0l0 -8.28125q0 -1.328125 -0.21875 -1.90625q-0.21875 -0.59375 -0.78125 -0.953125q-0.5625 -0.359375 -1.328125 -0.359375q-1.390625 0 -2.3125 0.921875q-0.90625 0.921875 -0.90625 2.953125l0 7.625l-2.234375 0l0 -8.53125q0 -1.484375 -0.546875 -2.21875q-0.53125 -0.75 -1.78125 -0.75q-0.9375 0 -1.734375 0.5q-0.796875 0.484375 -1.15625 1.4375q-0.359375 0.953125 -0.359375 2.75l0 6.8125l-2.21875 0zm21.114136 -15.578125l0 -2.546875l2.21875 0l0 2.546875l-2.21875 0zm0 15.578125l0 -13.140625l2.21875 0l0 13.140625l-2.21875 0zm10.470856 -1.984375l0.3125 1.953125q-0.9375 0.203125 -1.671875 0.203125q-1.21875 0 -1.890625 -0.375q-0.65625 -0.390625 -0.9375 -1.015625q-0.265625 -0.625 -0.265625 -2.625l0 -7.5625l-1.640625 0l0 -1.734375l1.640625 0l0 -3.25l2.21875 -1.328125l0 4.578125l2.234375 0l0 1.734375l-2.234375 0l0 7.6875q0 0.953125 0.109375 1.234375q0.125 0.265625 0.390625 0.421875q0.265625 0.15625 0.75 0.15625q0.375 0 0.984375 -0.078125z" fill-rule="nonzero"/><defs><linearGradient id="p.2" gradientUnits="userSpaceOnUse" gradientTransform="matrix(8.94432119986724 0.0 0.0 8.94432119986724 0.0 0.0)" spreadMethod="pad" x1="161.79432598741943" y1="15.522734763306621" x2="161.79428930671642" y2="24.467055963098645"><stop offset="0.0" stop-color="#d4e5f5"/><stop offset="1.0" stop-color="#70a4d5"/></linearGradient></defs><path fill="url(#p.2)" d="m1447.1404 178.8412l0 0c0 -22.091385 17.908691 -40.0 40.0 -40.0l163.71655 0l0 0c10.608643 0 20.782837 4.214279 28.284302 11.715729c7.501465 7.501465 11.715698 17.675613 11.715698 28.284271l0 0l0 0c0 22.0914 -17.90857 40.0 -40.0 40.0l-163.71655 0c-22.091309 0 -40.0 -17.9086 -40.0 -40.0z" fill-rule="evenodd"/><path stroke="#000000" stroke-width="1.0" stroke-linejoin="round" stroke-linecap="butt" d="m1447.1404 178.8412l0 0c0 -22.091385 17.908691 -40.0 40.0 -40.0l163.71655 0l0 0c10.608643 0 20.782837 4.214279 28.284302 11.715729c7.501465 7.501465 11.715698 17.675613 11.715698 28.284271l0 0l0 0c0 22.0914 -17.90857 40.0 -40.0 40.0l-163.71655 0c-22.091309 0 -40.0 -17.9086 -40.0 -40.0z" fill-rule="evenodd"/><path fill="#000000" d="m1490.9927 181.80183l2.40625 0.609375q-0.765625 2.953125 -2.734375 4.515625q-1.953125 1.546875 -4.78125 1.546875q-2.9375 0 -4.78125 -1.1875q-1.828125 -1.203125 -2.78125 -3.46875q-0.953125 -2.265625 -0.953125 -4.859375q0 -2.828125 1.078125 -4.9375q1.078125 -2.109375 3.078125 -3.203125q2.0 -1.09375 4.390625 -1.09375q2.734375 0 4.578125 1.390625q1.859375 1.375 2.59375 3.890625l-2.359375 0.546875q-0.640625 -1.96875 -1.84375 -2.875q-1.1875 -0.90625 -3.015625 -0.90625q-2.078125 0 -3.484375 1.0q-1.40625 1.0 -1.984375 2.703125q-0.5625 1.6875 -0.5625 3.46875q0 2.3125 0.671875 4.046875q0.671875 1.71875 2.09375 2.578125q1.421875 0.84375 3.078125 0.84375q2.015625 0 3.40625 -1.15625q1.40625 -1.15625 1.90625 -3.453125zm4.2442627 -0.203125q0 -3.65625 2.03125 -5.40625q1.6875 -1.46875 4.125 -1.46875q2.703125 0 4.421875 1.78125q1.71875 1.78125 1.71875 4.90625q0 2.53125 -0.765625 3.984375q-0.75 1.453125 -2.203125 2.265625q-1.453125 0.796875 -3.171875 0.796875q-2.765625 0 -4.46875 -1.765625q-1.6875 -1.765625 -1.6875 -5.09375zm2.28125 0q0 2.515625 1.09375 3.78125q1.109375 1.25 2.78125 1.25q1.65625 0 2.75 -1.265625q1.109375 -1.265625 1.109375 -3.84375q0 -2.4375 -1.109375 -3.6875q-1.109375 -1.265625 -2.75 -1.265625q-1.671875 0 -2.78125 1.25q-1.09375 1.25 -1.09375 3.78125zm12.633179 6.5625l0 -13.140625l1.984375 0l0 1.84375q0.625 -0.953125 1.640625 -1.546875q1.03125 -0.59375 2.34375 -0.59375q1.46875 0 2.390625 0.609375q0.9375 0.609375 1.328125 1.703125q1.546875 -2.3125 4.046875 -2.3125q1.953125 0 3.0 1.09375q1.0625 1.078125 1.0625 3.328125l0 9.015625l-2.21875 0l0 -8.28125q0 -1.328125 -0.21875 -1.90625q-0.21875 -0.59375 -0.78125 -0.953125q-0.5625 -0.359375 -1.328125 -0.359375q-1.390625 0 -2.3125 0.921875q-0.90625 0.921875 -0.90625 2.953125l0 7.625l-2.234375 0l0 -8.53125q0 -1.484375 -0.546875 -2.21875q-0.53125 -0.75 -1.78125 -0.75q-0.9375 0 -1.734375 0.5q-0.796875 0.484375 -1.15625 1.4375q-0.359375 0.953125 -0.359375 2.75l0 6.8125l-2.21875 0zm21.09851 0l0 -13.140625l1.984375 0l0 1.84375q0.625 -0.953125 1.640625 -1.546875q1.03125 -0.59375 2.34375 -0.59375q1.46875 0 2.390625 0.609375q0.9375 0.609375 1.328125 1.703125q1.546875 -2.3125 4.046875 -2.3125q1.953125 0 3.0 1.09375q1.0625 1.078125 1.0625 3.328125l0 9.015625l-2.21875 0l0 -8.28125q0 -1.328125 -0.21875 -1.90625q-0.21875 -0.59375 -0.78125 -0.953125q-0.5625 -0.359375 -1.328125 -0.359375q-1.390625 0 -2.3125 0.921875q-0.90625 0.921875 -0.90625 2.953125l0 7.625l-2.234375 0l0 -8.53125q0 -1.484375 -0.546875 -2.21875q-0.53125 -0.75 -1.78125 -0.75q-0.9375 0 -1.734375 0.5q-0.796875 0.484375 -1.15625 1.4375q-0.359375 0.953125 -0.359375 2.75l0 6.8125l-2.21875 0zm21.114258 -15.578125l0 -2.546875l2.21875 0l0 2.546875l-2.21875 0zm0 15.578125l0 -13.140625l2.21875 0l0 13.140625l-2.21875 0zm10.470825 -1.984375l0.3125 1.953125q-0.9375 0.203125 -1.671875 0.203125q-1.21875 0 -1.890625 -0.375q-0.65625 -0.390625 -0.9375 -1.015625q-0.265625 -0.625 -0.265625 -2.625l0 -7.5625l-1.640625 0l0 -1.734375l1.640625 0l0 -3.25l2.21875 -1.328125l0 4.578125l2.234375 0l0 1.734375l-2.234375 0l0 7.6875q0 0.953125 0.109375 1.234375q0.125 0.265625 0.390625 0.421875q0.265625 0.15625 0.75 0.15625q0.375 0 0.984375 -0.078125zm17.7771 -2.828125l2.1875 0.28125q-0.34375 2.265625 -1.828125 3.546875q-1.484375 1.28125 -3.625 1.28125q-2.703125 0 -4.34375 -1.765625q-1.640625 -1.765625 -1.640625 -5.046875q0 -2.125 0.703125 -3.71875q0.71875 -1.59375 2.15625 -2.390625q1.4375 -0.8125 3.125 -0.8125q2.140625 0 3.5 1.09375q1.359375 1.078125 1.75 3.0625l-2.171875 0.34375q-0.296875 -1.328125 -1.09375 -1.984375q-0.78125 -0.671875 -1.890625 -0.671875q-1.6875 0 -2.734375 1.203125q-1.046875 1.203125 -1.046875 3.8125q0 2.640625 1.015625 3.84375q1.015625 1.203125 2.640625 1.203125q1.3125 0 2.1875 -0.796875q0.875 -0.8125 1.109375 -2.484375zm4.0703125 4.8125l0 -13.140625l2.0 0l0 2.0q0.78125 -1.40625 1.421875 -1.84375q0.65625 -0.453125 1.4375 -0.453125q1.125 0 2.28125 0.71875l-0.765625 2.078125q-0.8125 -0.484375 -1.640625 -0.484375q-0.71875 0 -1.3125 0.4375q-0.578125 0.4375 -0.828125 1.21875q-0.359375 1.1875 -0.359375 2.59375l0 6.875l-2.234375 0zm17.450073 -4.234375l2.296875 0.296875q-0.53125 2.015625 -2.015625 3.125q-1.46875 1.109375 -3.75 1.109375q-2.890625 0 -4.578125 -1.765625q-1.6875 -1.78125 -1.6875 -4.984375q0 -3.3125 1.703125 -5.140625q1.71875 -1.84375 4.4375 -1.84375q2.640625 0 4.296875 1.796875q1.671875 1.796875 1.671875 5.046875q0 0.203125 -0.015625 0.59375l-9.78125 0q0.109375 2.171875 1.203125 3.328125q1.109375 1.140625 2.765625 1.140625q1.21875 0 2.078125 -0.640625q0.875 -0.640625 1.375 -2.0625zm-7.3125 -3.59375l7.34375 0q-0.15625 -1.65625 -0.84375 -2.484375q-1.0625 -1.28125 -2.75 -1.28125q-1.546875 0 -2.59375 1.03125q-1.03125 1.015625 -1.15625 2.734375zm20.976929 6.203125q-1.234375 1.0625 -2.375 1.5q-1.140625 0.421875 -2.453125 0.421875q-2.171875 0 -3.328125 -1.046875q-1.15625 -1.0625 -1.15625 -2.71875q0 -0.953125 0.4375 -1.75q0.4375 -0.796875 1.140625 -1.28125q0.71875 -0.484375 1.609375 -0.734375q0.65625 -0.171875 1.96875 -0.328125q2.703125 -0.328125 3.96875 -0.765625q0.015625 -0.46875 0.015625 -0.59375q0 -1.359375 -0.625 -1.90625q-0.859375 -0.765625 -2.53125 -0.765625q-1.578125 0 -2.328125 0.5625q-0.75 0.546875 -1.109375 1.9375l-2.171875 -0.296875q0.296875 -1.390625 0.96875 -2.25q0.6875 -0.859375 1.96875 -1.328125q1.296875 -0.46875 2.984375 -0.46875q1.6875 0 2.734375 0.40625q1.046875 0.390625 1.546875 1.0q0.5 0.59375 0.6875 1.5q0.125 0.578125 0.125 2.0625l0 2.96875q0 3.09375 0.140625 3.921875q0.140625 0.828125 0.5625 1.578125l-2.328125 0q-0.34375 -0.6875 -0.453125 -1.625zm-0.1875 -4.96875q-1.203125 0.5 -3.625 0.84375q-1.375 0.203125 -1.953125 0.453125q-0.5625 0.234375 -0.875 0.71875q-0.296875 0.46875 -0.296875 1.046875q0 0.890625 0.671875 1.484375q0.671875 0.59375 1.96875 0.59375q1.28125 0 2.28125 -0.5625q1.0 -0.5625 1.484375 -1.53125q0.34375 -0.75 0.34375 -2.234375l0 -0.8125zm10.570679 4.609375l0.3125 1.953125q-0.9375 0.203125 -1.671875 0.203125q-1.21875 0 -1.890625 -0.375q-0.65625 -0.390625 -0.9375 -1.015625q-0.265625 -0.625 -0.265625 -2.625l0 -7.5625l-1.640625 0l0 -1.734375l1.640625 0l0 -3.25l2.21875 -1.328125l0 4.578125l2.234375 0l0 1.734375l-2.234375 0l0 7.6875q0 0.953125 0.109375 1.234375q0.125 0.265625 0.390625 0.421875q0.265625 0.15625 0.75 0.15625q0.375 0 0.984375 -0.078125zm11.161987 -2.25l2.296875 0.296875q-0.53125 2.015625 -2.015625 3.125q-1.46875 1.109375 -3.75 1.109375q-2.890625 0 -4.578125 -1.765625q-1.6875 -1.78125 -1.6875 -4.984375q0 -3.3125 1.703125 -5.140625q1.71875 -1.84375 4.4375 -1.84375q2.640625 0 4.296875 1.796875q1.671875 1.796875 1.671875 5.046875q0 0.203125 -0.015625 0.59375l-9.78125 0q0.109375 2.171875 1.203125 3.328125q1.109375 1.140625 2.765625 1.140625q1.21875 0 2.078125 -0.640625q0.875 -0.640625 1.375 -2.0625zm-7.3125 -3.59375l7.34375 0q-0.15625 -1.65625 -0.84375 -2.484375q-1.0625 -1.28125 -2.75 -1.28125q-1.546875 0 -2.59375 1.03125q-1.03125 1.015625 -1.15625 2.734375zm20.930054 7.828125l0 -1.65625q-1.25 1.953125 -3.671875 1.953125q-1.5625 0 -2.890625 -0.859375q-1.3125 -0.875 -2.046875 -2.421875q-0.71875 -1.546875 -0.71875 -3.5625q0 -1.96875 0.65625 -3.5625q0.65625 -1.609375 1.96875 -2.46875q1.3125 -0.859375 2.9375 -0.859375q1.1875 0 2.109375 0.515625q0.9375 0.5 1.515625 1.296875l0 -6.5l2.203125 0l0 18.125l-2.0625 0zm-7.03125 -6.546875q0 2.515625 1.0625 3.765625q1.0625 1.25 2.515625 1.25q1.453125 0 2.46875 -1.1875q1.03125 -1.203125 1.03125 -3.65625q0 -2.6875 -1.046875 -3.953125q-1.03125 -1.265625 -2.5625 -1.265625q-1.484375 0 -2.484375 1.21875q-0.984375 1.203125 -0.984375 3.828125zm13.789429 2.046875l-0.6875 -9.609375l0 -4.015625l2.765625 0l0 4.015625l-0.640625 9.609375l-1.4375 0zm-0.578125 4.5l0 -2.53125l2.546875 0l0 2.53125l-2.546875 0z" fill-rule="nonzero"/><path fill="#000000" fill-opacity="0.0" d="m339.99475 179.84908l1052.0 0" fill-rule="evenodd"/><path stroke="#000000" stroke-width="4.0" stroke-linejoin="round" stroke-linecap="butt" d="m339.99475 179.84908l1038.2916 0" fill-rule="evenodd"/><path fill="#000000" stroke="#000000" stroke-width="4.0" stroke-linecap="butt" d="m1378.2864 179.84908l-4.498291 4.498337l12.359009 -4.498337l-12.359009 -4.4983215z" fill-rule="evenodd"/><path fill="#000000" fill-opacity="0.0" d="m535.30707 14.3202095l625.9843 0l0 74.3307l-625.9843 0z" fill-rule="evenodd"/><path fill="#000000" d="m727.3457 39.73083q-4.859375 0 -7.421875 3.015625q-2.5625 3.015625 -2.5625 8.359375q0 2.546875 0.609375 4.65625q0.625 2.109375 1.828125 3.609375q1.203125 1.484375 2.984375 2.328125q1.796875 0.828125 4.1875 0.828125q1.5 0 2.578125 -0.109375q1.09375 -0.109375 1.734375 -0.296875l0 -11.28125l5.71875 0l0 15.093754q-1.1875 0.453125 -4.0 1.0q-2.8125 0.546875 -6.484375 0.546875q-3.390625 0 -6.203125 -1.09375q-2.8125 -1.09375 -4.78125 -3.1718788q-1.96875 -2.09375 -3.0625 -5.125q-1.078125 -3.03125 -1.078125 -6.984375q0 -3.9375 1.1875 -6.96875q1.203125 -3.046875 3.28125 -5.15625q2.09375 -2.109375 4.90625 -3.1875q2.8125 -1.09375 5.984375 -1.09375q2.171875 0 3.875 0.296875q1.703125 0.296875 2.921875 0.65625q1.21875 0.359375 2.015625 0.78125q0.796875 0.40625 1.109375 0.578125l-1.71875 4.671875q-1.359375 -0.8125 -3.375 -1.375q-2.015625 -0.578125 -4.234375 -0.578125zm21.521667 27.109379l-5.484375 0l0 -23.703129l5.484375 0l0 23.703129zm0.59375 -30.640629q0 1.546875 -1.0 2.453125q-1.0 0.90625 -2.359375 0.90625q-1.40625 0 -2.40625 -0.90625q-0.984375 -0.90625 -0.984375 -2.453125q0 -1.59375 0.984375 -2.5q1.0 -0.90625 2.40625 -0.90625q1.359375 0 2.359375 0.90625q1.0 0.90625 1.0 2.5zm6.119934 0.671875l5.484375 -0.90625l0 7.171875l8.4375 0l0 4.578125l-8.4375 0l0 9.65625q0 2.84375 0.90625 4.078125q0.90625 1.21875 3.078125 1.21875q1.5 0 2.65625 -0.3125q1.15625 -0.328125 1.828125 -0.59375l0.90625 4.359379q-0.9375 0.40625 -2.484375 0.828125q-1.546875 0.4375 -3.625 0.4375q-2.546875 0 -4.25 -0.671875q-1.6875 -0.6875 -2.6875 -1.984375q-1.0 -1.2968788 -1.40625 -3.1250038q-0.40625 -1.84375 -0.40625 -4.1875l0 -20.546875zm50.18048 2.09375q0.71875 2.453125 1.53125 5.109375q0.828125 2.640625 1.703125 5.296875q0.890625 2.640625 1.765625 5.203125q0.890625 2.5625 1.703125 4.828125q0.6875 -2.4375 1.3125 -5.3125q0.640625 -2.890625 1.265625 -5.984375q0.640625 -3.109375 1.25 -6.328125q0.609375 -3.21875 1.15625 -6.34375l5.890625 0q-1.578125 8.515625 -3.53125 16.390625q-1.953125 7.859375 -4.34375 15.015629l-5.4375 0q-3.546875 -9.156254 -6.859375 -19.984379q-1.671875 5.484375 -3.390625 10.421875q-1.71875 4.9375 -3.453125 9.562504l-5.4375 0q-2.4375 -7.156254 -4.375 -15.015629q-1.921875 -7.875 -3.5 -16.390625l6.109375 0q0.546875 3.078125 1.15625 6.296875q0.609375 3.21875 1.265625 6.328125q0.65625 3.09375 1.328125 6.0q0.6875 2.90625 1.375 5.34375q0.859375 -2.3125 1.734375 -4.875q0.890625 -2.5625 1.75 -5.203125q0.859375 -2.65625 1.65625 -5.28125q0.796875 -2.625 1.484375 -5.078125l4.890625 0zm42.70331 16.0q0 2.8125 -0.828125 5.125q-0.8125 2.3125 -2.3125 3.9531288q-1.484375 1.625 -3.59375 2.53125q-2.109375 0.90625 -4.65625 0.90625q-2.53125 0 -4.625 -0.90625q-2.078125 -0.90625 -3.578125 -2.53125q-1.484375 -1.6406288 -2.328125 -3.9531288q-0.84375 -2.3125 -0.84375 -5.125q0 -2.8125 0.84375 -5.09375q0.84375 -2.296875 2.359375 -3.921875q1.515625 -1.640625 3.59375 -2.515625q2.09375 -0.890625 4.578125 -0.890625q2.5 0 4.609375 0.890625q2.109375 0.875 3.59375 2.515625q1.5 1.625 2.34375 3.921875q0.84375 2.28125 0.84375 5.09375zm-5.625 0q0 -3.53125 -1.53125 -5.59375q-1.515625 -2.0625 -4.234375 -2.0625q-2.71875 0 -4.234375 2.0625q-1.515625 2.0625 -1.515625 5.59375q0 3.578125 1.515625 5.671875q1.515625 2.078125 4.234375 2.078125q2.71875 0 4.234375 -2.078125q1.53125 -2.09375 1.53125 -5.671875zm24.793762 -6.890625q-0.6875 -0.234375 -1.890625 -0.46875q-1.1875 -0.25 -2.78125 -0.25q-0.90625 0 -1.921875 0.1875q-1.015625 0.171875 -1.4375 0.296875l0 19.000004l-5.484375 0l0 -22.578129q1.59375 -0.578125 3.96875 -1.09375q2.390625 -0.53125 5.28125 -0.53125q0.546875 0 1.265625 0.078125q0.734375 0.0625 1.453125 0.171875q0.734375 0.109375 1.40625 0.265625q0.6875 0.15625 1.09375 0.296875l-0.953125 4.625zm10.235962 4.3125q1.046875 -1.09375 2.21875 -2.34375q1.1875 -1.25 2.3125 -2.484375q1.140625 -1.25 2.15625 -2.40625q1.03125 -1.15625 1.75 -2.015625l6.484375 0q-2.265625 2.53125 -4.78125 5.25q-2.515625 2.71875 -5.0625 5.3125q1.359375 1.125 2.859375 2.734375q1.5 1.609375 2.90625 3.421875q1.40625 1.8125 2.625 3.625q1.21875 1.8125038 2.046875 3.3593788l-6.359375 0q-0.8125 -1.40625 -1.875 -2.9375038q-1.0625 -1.546875 -2.296875 -3.0q-1.21875 -1.453125 -2.484375 -2.734375q-1.265625 -1.296875 -2.5 -2.203125l0 10.875004l-5.484375 0l0 -34.26563l5.484375 -0.90625l0 20.71875zm29.241455 -20.71875q1.71875 0 2.921875 0.28125q1.203125 0.265625 1.890625 0.53125l-0.875 4.4375q-0.625 -0.21875 -1.515625 -0.390625q-0.875 -0.1875 -1.921875 -0.1875q-2.71875 0 -3.75 1.453125q-1.015625 1.4375 -1.015625 3.75l0 1.59375l8.703125 0l0 4.578125l-8.703125 0l0 19.125004l-5.484375 0l0 -25.390629q0 -4.609375 2.40625 -7.1875q2.40625 -2.59375 7.34375 -2.59375zm16.90625 35.625004q-2.4375 -0.046875 -4.046875 -0.546875q-1.609375 -0.5 -2.5625 -1.421875q-0.953125 -0.9375 -1.34375 -2.3125038q-0.390625 -1.390625 -0.390625 -3.15625l0 -27.28125l5.484375 -0.90625l0 27.15625q0 0.984375 0.15625 1.671875q0.171875 0.671875 0.578125 1.15625q0.40625 0.46875 1.109375 0.71875q0.703125 0.25 1.78125 0.390625l-0.765625 4.531254zm26.662537 -12.328129q0 2.8125 -0.828125 5.125q-0.8125 2.3125 -2.3125 3.9531288q-1.484375 1.625 -3.59375 2.53125q-2.109375 0.90625 -4.65625 0.90625q-2.53125 0 -4.625 -0.90625q-2.078125 -0.90625 -3.578125 -2.53125q-1.484375 -1.6406288 -2.328125 -3.9531288q-0.84375 -2.3125 -0.84375 -5.125q0 -2.8125 0.84375 -5.09375q0.84375 -2.296875 2.359375 -3.921875q1.515625 -1.640625 3.59375 -2.515625q2.09375 -0.890625 4.578125 -0.890625q2.5 0 4.609375 0.890625q2.109375 0.875 3.59375 2.515625q1.5 1.625 2.34375 3.921875q0.84375 2.28125 0.84375 5.09375zm-5.625 0q0 -3.53125 -1.53125 -5.59375q-1.515625 -2.0625 -4.234375 -2.0625q-2.71875 0 -4.234375 2.0625q-1.515625 2.0625 -1.515625 5.59375q0 3.578125 1.515625 5.671875q1.515625 2.078125 4.234375 2.078125q2.71875 0 4.234375 -2.078125q1.53125 -2.09375 1.53125 -5.671875zm24.920044 -3.03125q-1.03125 3.984375 -2.234375 7.765625q-1.203125 3.78125 -2.375 7.140629l-4.5 0q-0.90625 -2.078125 -1.90625 -4.750004q-0.984375 -2.6875 -1.984375 -5.71875q-1.0 -3.03125 -2.0 -6.390625q-1.0 -3.359375 -1.9375 -6.84375l5.796875 0q0.40625 1.90625 0.953125 4.109375q0.546875 2.1875 1.125 4.484375q0.59375 2.28125 1.21875 4.46875q0.640625 2.171875 1.28125 3.984375q0.671875 -2.09375 1.328125 -4.3125q0.65625 -2.21875 1.25 -4.4375q0.59375 -2.21875 1.109375 -4.328125q0.53125 -2.109375 0.9375 -3.96875l4.21875 0q0.40625 1.859375 0.890625 3.96875q0.5 2.109375 1.0625 4.328125q0.578125 2.21875 1.234375 4.4375q0.65625 2.21875 1.34375 4.3125q0.578125 -1.8125 1.21875 -3.984375q0.640625 -2.1875 1.25 -4.46875q0.609375 -2.296875 1.15625 -4.484375q0.546875 -2.203125 0.953125 -4.109375l5.65625 0q-0.953125 3.484375 -1.953125 6.84375q-0.984375 3.359375 -1.984375 6.390625q-1.0 3.03125 -2.0 5.71875q-1.0 2.6718788 -1.953125 4.750004l-4.4375 0q-1.171875 -3.3593788 -2.421875 -7.140629q-1.25 -3.78125 -2.296875 -7.765625z" fill-rule="nonzero"/></g></svg>