<svg version="1.1" viewBox="0.0 0.0 1725.1837270341207 897.6456692913385" fill="none" stroke="none" stroke-linecap="square" stroke-miterlimit="10" xmlns:xlink="http://www.w3.org/1999/xlink" xmlns="http://www.w3.org/2000/svg"><clipPath id="p.0"><path d="m0 0l1725.1837 0l0 897.6457l-1725.1837 0l0 -897.6457z" clip-rule="nonzero"/></clipPath><g clip-path="url(#p.0)"><path fill="#000000" fill-opacity="0.0" d="m0 0l1725.1837 0l0 897.6457l-1725.1837 0z" fill-rule="evenodd"/><defs><linearGradient id="p.1" gradientUnits="userSpaceOnUse" gradientTransform="matrix(8.94432119985894 0.0 0.0 8.94432119985894 0.0 0.0)" spreadMethod="pad" x1="3.7051911718051014" y1="16.14058452471457" x2="3.705158789621981" y2="25.084905724514893"><stop offset="0.0" stop-color="#d4e5f5"/><stop offset="1.0" stop-color="#70a4d5"/></linearGradient></defs><path fill="url(#p.1)" d="m33.14042 184.36745l0 0c0 -22.091385 17.908611 -40.0 40.0 -40.0l163.71652 0l0 0c10.608673 0 20.782822 4.214279 28.284286 11.715729c7.5014343 7.501465 11.715729 17.675613 11.715729 28.284271l0 0l0 0c0 22.0914 -17.90863 40.0 -40.000015 40.0l-163.71652 0c-22.091389 0 -40.0 -17.9086 -40.0 -40.0z" fill-rule="evenodd"/><path stroke="#000000" stroke-width="1.0" stroke-linejoin="round" stroke-linecap="butt" d="m33.14042 184.36745l0 0c0 -22.091385 17.908611 -40.0 40.0 -40.0l163.71652 0l0 0c10.608673 0 20.782822 4.214279 28.284286 11.715729c7.5014343 7.501465 11.715729 17.675613 11.715729 28.284271l0 0l0 0c0 22.0914 -17.90863 40.0 -40.000015 40.0l-163.71652 0c-22.091389 0 -40.0 -17.9086 -40.0 -40.0z" fill-rule="evenodd"/><path fill="#000000" d="m98.56489 194.7812l2.15625 0.3125q0.140625 1.0 0.765625 1.46875q0.828125 0.609375 2.25 0.609375q1.546875 0 2.390625 -0.625q0.84375 -0.609375 1.140625 -1.71875q0.171875 -0.6875 0.15625 -2.859375q-1.453125 1.71875 -3.625 1.71875q-2.71875 0 -4.203125 -1.953125q-1.484375 -1.953125 -1.484375 -4.6875q0 -1.875 0.671875 -3.46875q0.6875 -1.59375 1.984375 -2.453125q1.296875 -0.875 3.03125 -0.875q2.328125 0 3.84375 1.890625l0 -1.59375l2.046875 0l0 11.359375q0 3.0625 -0.625 4.34375q-0.625 1.28125 -1.984375 2.015625q-1.34375 0.75 -3.328125 0.75q-2.34375 0 -3.796875 -1.0625q-1.4375 -1.046875 -1.390625 -3.171875zm1.84375 -7.890625q0 2.578125 1.015625 3.765625q1.03125 1.1875 2.578125 1.1875q1.53125 0 2.5625 -1.171875q1.046875 -1.1875 1.046875 -3.71875q0 -2.40625 -1.078125 -3.625q-1.0625 -1.234375 -2.5625 -1.234375q-1.484375 0 -2.53125 1.21875q-1.03125 1.203125 -1.03125 3.578125zm12.664429 -8.78125l0 -2.546875l2.21875 0l0 2.546875l-2.21875 0zm0 15.578125l0 -13.140625l2.21875 0l0 13.140625l-2.21875 0zm10.470856 -1.984375l0.3125 1.953125q-0.9375 0.203125 -1.671875 0.203125q-1.21875 0 -1.890625 -0.375q-0.65625 -0.390625 -0.9375 -1.015625q-0.265625 -0.625 -0.265625 -2.625l0 -7.5625l-1.640625 0l0 -1.734375l1.640625 0l0 -3.25l2.21875 -1.328125l0 4.578125l2.234375 0l0 1.734375l-2.234375 0l0 7.6875q0 0.953125 0.109375 1.234375q0.125 0.265625 0.390625 0.421875q0.265625 0.15625 0.75 0.15625q0.375 0 0.984375 -0.078125zm17.777077 -2.828125l2.1875 0.28125q-0.34375 2.265625 -1.828125 3.546875q-1.484375 1.28125 -3.625 1.28125q-2.703125 0 -4.34375 -1.765625q-1.640625 -1.765625 -1.640625 -5.046875q0 -2.125 0.703125 -3.71875q0.71875 -1.59375 2.15625 -2.390625q1.4375 -0.8125 3.125 -0.8125q2.140625 0 3.5 1.09375q1.359375 1.078125 1.75 3.0625l-2.171875 0.34375q-0.296875 -1.328125 -1.09375 -1.984375q-0.78125 -0.671875 -1.890625 -0.671875q-1.6875 0 -2.734375 1.203125q-1.046875 1.203125 -1.046875 3.8125q0 2.640625 1.015625 3.84375q1.015625 1.203125 2.640625 1.203125q1.3125 0 2.1875 -0.796875q0.875 -0.8125 1.109375 -2.484375zm3.2734375 -1.75q0 -3.65625 2.03125 -5.40625q1.6875 -1.46875 4.125 -1.46875q2.703125 0 4.421875 1.78125q1.71875 1.78125 1.71875 4.90625q0 2.53125 -0.765625 3.984375q-0.75 1.453125 -2.203125 2.265625q-1.453125 0.796875 -3.171875 0.796875q-2.765625 0 -4.46875 -1.765625q-1.6875 -1.765625 -1.6875 -5.09375zm2.28125 0q0 2.515625 1.09375 3.78125q1.109375 1.25 2.78125 1.25q1.65625 0 2.75 -1.265625q1.109375 -1.265625 1.109375 -3.84375q0 -2.4375 -1.109375 -3.6875q-1.109375 -1.265625 -2.75 -1.265625q-1.671875 0 -2.78125 1.25q-1.09375 1.25 -1.09375 3.78125zm12.633179 6.5625l0 -13.140625l1.984375 0l0 1.84375q0.625 -0.953125 1.640625 -1.546875q1.03125 -0.59375 2.34375 -0.59375q1.46875 0 2.390625 0.609375q0.9375 0.609375 1.328125 1.703125q1.546875 -2.3125 4.0468597 -2.3125q1.953125 0 3.0 1.09375q1.0625 1.078125 1.0625 3.328125l0 9.015625l-2.21875 0l0 -8.28125q0 -1.328125 -0.21875 -1.90625q-0.21875 -0.59375 -0.78125 -0.953125q-0.5625 -0.359375 -1.3281097 -0.359375q-1.390625 0 -2.3125 0.921875q-0.90625 0.921875 -0.90625 2.953125l0 7.625l-2.234375 0l0 -8.53125q0 -1.484375 -0.546875 -2.21875q-0.53125 -0.75 -1.78125 -0.75q-0.9375 0 -1.734375 0.5q-0.796875 0.484375 -1.15625 1.4375q-0.359375 0.953125 -0.359375 2.75l0 6.8125l-2.21875 0zm21.098526 0l0 -13.140625l1.984375 0l0 1.84375q0.625 -0.953125 1.640625 -1.546875q1.03125 -0.59375 2.34375 -0.59375q1.46875 0 2.390625 0.609375q0.9375 0.609375 1.328125 1.703125q1.546875 -2.3125 4.046875 -2.3125q1.953125 0 3.0 1.09375q1.0625 1.078125 1.0625 3.328125l0 9.015625l-2.21875 0l0 -8.28125q0 -1.328125 -0.21875 -1.90625q-0.21875 -0.59375 -0.78125 -0.953125q-0.5625 -0.359375 -1.328125 -0.359375q-1.390625 0 -2.3125 0.921875q-0.90625 0.921875 -0.90625 2.953125l0 7.625l-2.234375 0l0 -8.53125q0 -1.484375 -0.546875 -2.21875q-0.53125 -0.75 -1.78125 -0.75q-0.9375 0 -1.734375 0.5q-0.796875 0.484375 -1.15625 1.4375q-0.359375 0.953125 -0.359375 2.75l0 6.8125l-2.21875 0zm21.114136 -15.578125l0 -2.546875l2.21875 0l0 2.546875l-2.21875 0zm0 15.578125l0 -13.140625l2.21875 0l0 13.140625l-2.21875 0zm10.470856 -1.984375l0.3125 1.953125q-0.9375 0.203125 -1.671875 0.203125q-1.21875 0 -1.890625 -0.375q-0.65625 -0.390625 -0.9375 -1.015625q-0.265625 -0.625 -0.265625 -2.625l0 -7.5625l-1.640625 0l0 -1.734375l1.640625 0l0 -3.25l2.21875 -1.328125l0 4.578125l2.234375 0l0 1.734375l-2.234375 0l0 7.6875q0 0.953125 0.109375 1.234375q0.125 0.265625 0.390625 0.421875q0.265625 0.15625 0.75 0.15625q0.375 0 0.984375 -0.078125z" fill-rule="nonzero"/><defs><linearGradient id="p.2" gradientUnits="userSpaceOnUse" gradientTransform="matrix(8.94432119986724 0.0 0.0 8.94432119986724 0.0 0.0)" spreadMethod="pad" x1="161.79432598741943" y1="16.140584524699598" x2="161.79428930671642" y2="25.08490572449162"><stop offset="0.0" stop-color="#d4e5f5"/><stop offset="1.0" stop-color="#70a4d5"/></linearGradient></defs><path fill="url(#p.2)" d="m1447.1404 184.36745l0 0c0 -22.091385 17.908691 -40.0 40.0 -40.0l163.71655 0l0 0c10.608643 0 20.782837 4.214279 28.284302 11.715729c7.501465 7.501465 11.715698 17.675613 11.715698 28.284271l0 0l0 0c0 22.0914 -17.90857 40.0 -40.0 40.0l-163.71655 0c-22.091309 0 -40.0 -17.9086 -40.0 -40.0z" fill-rule="evenodd"/><path stroke="#000000" stroke-width="1.0" stroke-linejoin="round" stroke-linecap="butt" d="m1447.1404 184.36745l0 0c0 -22.091385 17.908691 -40.0 40.0 -40.0l163.71655 0l0 0c10.608643 0 20.782837 4.214279 28.284302 11.715729c7.501465 7.501465 11.715698 17.675613 11.715698 28.284271l0 0l0 0c0 22.0914 -17.90857 40.0 -40.0 40.0l-163.71655 0c-22.091309 0 -40.0 -17.9086 -40.0 -40.0z" fill-rule="evenodd"/><path fill="#000000" d="m1490.9927 187.32808l2.40625 0.609375q-0.765625 2.953125 -2.734375 4.515625q-1.953125 1.546875 -4.78125 1.546875q-2.9375 0 -4.78125 -1.1875q-1.828125 -1.203125 -2.78125 -3.46875q-0.953125 -2.265625 -0.953125 -4.859375q0 -2.828125 1.078125 -4.9375q1.078125 -2.109375 3.078125 -3.203125q2.0 -1.09375 4.390625 -1.09375q2.734375 0 4.578125 1.390625q1.859375 1.375 2.59375 3.890625l-2.359375 0.546875q-0.640625 -1.96875 -1.84375 -2.875q-1.1875 -0.90625 -3.015625 -0.90625q-2.078125 0 -3.484375 1.0q-1.40625 1.0 -1.984375 2.703125q-0.5625 1.6875 -0.5625 3.46875q0 2.3125 0.671875 4.046875q0.671875 1.71875 2.09375 2.578125q1.421875 0.84375 3.078125 0.84375q2.015625 0 3.40625 -1.15625q1.40625 -1.15625 1.90625 -3.453125zm4.2442627 -0.203125q0 -3.65625 2.03125 -5.40625q1.6875 -1.46875 4.125 -1.46875q2.703125 0 4.421875 1.78125q1.71875 1.78125 1.71875 4.90625q0 2.53125 -0.765625 3.984375q-0.75 1.453125 -2.203125 2.265625q-1.453125 0.796875 -3.171875 0.796875q-2.765625 0 -4.46875 -1.765625q-1.6875 -1.765625 -1.6875 -5.09375zm2.28125 0q0 2.515625 1.09375 3.78125q1.109375 1.25 2.78125 1.25q1.65625 0 2.75 -1.265625q1.109375 -1.265625 1.109375 -3.84375q0 -2.4375 -1.109375 -3.6875q-1.109375 -1.265625 -2.75 -1.265625q-1.671875 0 -2.78125 1.25q-1.09375 1.25 -1.09375 3.78125zm12.633179 6.5625l0 -13.140625l1.984375 0l0 1.84375q0.625 -0.953125 1.640625 -1.546875q1.03125 -0.59375 2.34375 -0.59375q1.46875 0 2.390625 0.609375q0.9375 0.609375 1.328125 1.703125q1.546875 -2.3125 4.046875 -2.3125q1.953125 0 3.0 1.09375q1.0625 1.078125 1.0625 3.328125l0 9.015625l-2.21875 0l0 -8.28125q0 -1.328125 -0.21875 -1.90625q-0.21875 -0.59375 -0.78125 -0.953125q-0.5625 -0.359375 -1.328125 -0.359375q-1.390625 0 -2.3125 0.921875q-0.90625 0.921875 -0.90625 2.953125l0 7.625l-2.234375 0l0 -8.53125q0 -1.484375 -0.546875 -2.21875q-0.53125 -0.75 -1.78125 -0.75q-0.9375 0 -1.734375 0.5q-0.796875 0.484375 -1.15625 1.4375q-0.359375 0.953125 -0.359375 2.75l0 6.8125l-2.21875 0zm21.09851 0l0 -13.140625l1.984375 0l0 1.84375q0.625 -0.953125 1.640625 -1.546875q1.03125 -0.59375 2.34375 -0.59375q1.46875 0 2.390625 0.609375q0.9375 0.609375 1.328125 1.703125q1.546875 -2.3125 4.046875 -2.3125q1.953125 0 3.0 1.09375q1.0625 1.078125 1.0625 3.328125l0 9.015625l-2.21875 0l0 -8.28125q0 -1.328125 -0.21875 -1.90625q-0.21875 -0.59375 -0.78125 -0.953125q-0.5625 -0.359375 -1.328125 -0.359375q-1.390625 0 -2.3125 0.921875q-0.90625 0.921875 -0.90625 2.953125l0 7.625l-2.234375 0l0 -8.53125q0 -1.484375 -0.546875 -2.21875q-0.53125 -0.75 -1.78125 -0.75q-0.9375 0 -1.734375 0.5q-0.796875 0.484375 -1.15625 1.4375q-0.359375 0.953125 -0.359375 2.75l0 6.8125l-2.21875 0zm21.114258 -15.578125l0 -2.546875l2.21875 0l0 2.546875l-2.21875 0zm0 15.578125l0 -13.140625l2.21875 0l0 13.140625l-2.21875 0zm10.470825 -1.984375l0.3125 1.953125q-0.9375 0.203125 -1.671875 0.203125q-1.21875 0 -1.890625 -0.375q-0.65625 -0.390625 -0.9375 -1.015625q-0.265625 -0.625 -0.265625 -2.625l0 -7.5625l-1.640625 0l0 -1.734375l1.640625 0l0 -3.25l2.21875 -1.328125l0 4.578125l2.234375 0l0 1.734375l-2.234375 0l0 7.6875q0 0.953125 0.109375 1.234375q0.125 0.265625 0.390625 0.421875q0.265625 0.15625 0.75 0.15625q0.375 0 0.984375 -0.078125zm17.7771 -2.828125l2.1875 0.28125q-0.34375 2.265625 -1.828125 3.546875q-1.484375 1.28125 -3.625 1.28125q-2.703125 0 -4.34375 -1.765625q-1.640625 -1.765625 -1.640625 -5.046875q0 -2.125 0.703125 -3.71875q0.71875 -1.59375 2.15625 -2.390625q1.4375 -0.8125 3.125 -0.8125q2.140625 0 3.5 1.09375q1.359375 1.078125 1.75 3.0625l-2.171875 0.34375q-0.296875 -1.328125 -1.09375 -1.984375q-0.78125 -0.671875 -1.890625 -0.671875q-1.6875 0 -2.734375 1.203125q-1.046875 1.203125 -1.046875 3.8125q0 2.640625 1.015625 3.84375q1.015625 1.203125 2.640625 1.203125q1.3125 0 2.1875 -0.796875q0.875 -0.8125 1.109375 -2.484375zm4.0703125 4.8125l0 -13.140625l2.0 0l0 2.0q0.78125 -1.40625 1.421875 -1.84375q0.65625 -0.453125 1.4375 -0.453125q1.125 0 2.28125 0.71875l-0.765625 2.078125q-0.8125 -0.484375 -1.640625 -0.484375q-0.71875 0 -1.3125 0.4375q-0.578125 0.4375 -0.828125 1.21875q-0.359375 1.1875 -0.359375 2.59375l0 6.875l-2.234375 0zm17.450073 -4.234375l2.296875 0.296875q-0.53125 2.015625 -2.015625 3.125q-1.46875 1.109375 -3.75 1.109375q-2.890625 0 -4.578125 -1.765625q-1.6875 -1.78125 -1.6875 -4.984375q0 -3.3125 1.703125 -5.140625q1.71875 -1.84375 4.4375 -1.84375q2.640625 0 4.296875 1.796875q1.671875 1.796875 1.671875 5.046875q0 0.203125 -0.015625 0.59375l-9.78125 0q0.109375 2.171875 1.203125 3.328125q1.109375 1.140625 2.765625 1.140625q1.21875 0 2.078125 -0.640625q0.875 -0.640625 1.375 -2.0625zm-7.3125 -3.59375l7.34375 0q-0.15625 -1.65625 -0.84375 -2.484375q-1.0625 -1.28125 -2.75 -1.28125q-1.546875 0 -2.59375 1.03125q-1.03125 1.015625 -1.15625 2.734375zm20.976929 6.203125q-1.234375 1.0625 -2.375 1.5q-1.140625 0.421875 -2.453125 0.421875q-2.171875 0 -3.328125 -1.046875q-1.15625 -1.0625 -1.15625 -2.71875q0 -0.953125 0.4375 -1.75q0.4375 -0.796875 1.140625 -1.28125q0.71875 -0.484375 1.609375 -0.734375q0.65625 -0.171875 1.96875 -0.328125q2.703125 -0.328125 3.96875 -0.765625q0.015625 -0.46875 0.015625 -0.59375q0 -1.359375 -0.625 -1.90625q-0.859375 -0.765625 -2.53125 -0.765625q-1.578125 0 -2.328125 0.5625q-0.75 0.546875 -1.109375 1.9375l-2.171875 -0.296875q0.296875 -1.390625 0.96875 -2.25q0.6875 -0.859375 1.96875 -1.328125q1.296875 -0.46875 2.984375 -0.46875q1.6875 0 2.734375 0.40625q1.046875 0.390625 1.546875 1.0q0.5 0.59375 0.6875 1.5q0.125 0.578125 0.125 2.0625l0 2.96875q0 3.09375 0.140625 3.921875q0.140625 0.828125 0.5625 1.578125l-2.328125 0q-0.34375 -0.6875 -0.453125 -1.625zm-0.1875 -4.96875q-1.203125 0.5 -3.625 0.84375q-1.375 0.203125 -1.953125 0.453125q-0.5625 0.234375 -0.875 0.71875q-0.296875 0.46875 -0.296875 1.046875q0 0.890625 0.671875 1.484375q0.671875 0.59375 1.96875 0.59375q1.28125 0 2.28125 -0.5625q1.0 -0.5625 1.484375 -1.53125q0.34375 -0.75 0.34375 -2.234375l0 -0.8125zm10.570679 4.609375l0.3125 1.953125q-0.9375 0.203125 -1.671875 0.203125q-1.21875 0 -1.890625 -0.375q-0.65625 -0.390625 -0.9375 -1.015625q-0.265625 -0.625 -0.265625 -2.625l0 -7.5625l-1.640625 0l0 -1.734375l1.640625 0l0 -3.25l2.21875 -1.328125l0 4.578125l2.234375 0l0 1.734375l-2.234375 0l0 7.6875q0 0.953125 0.109375 1.234375q0.125 0.265625 0.390625 0.421875q0.265625 0.15625 0.75 0.15625q0.375 0 0.984375 -0.078125zm11.161987 -2.25l2.296875 0.296875q-0.53125 2.015625 -2.015625 3.125q-1.46875 1.109375 -3.75 1.109375q-2.890625 0 -4.578125 -1.765625q-1.6875 -1.78125 -1.6875 -4.984375q0 -3.3125 1.703125 -5.140625q1.71875 -1.84375 4.4375 -1.84375q2.640625 0 4.296875 1.796875q1.671875 1.796875 1.671875 5.046875q0 0.203125 -0.015625 0.59375l-9.78125 0q0.109375 2.171875 1.203125 3.328125q1.109375 1.140625 2.765625 1.140625q1.21875 0 2.078125 -0.640625q0.875 -0.640625 1.375 -2.0625zm-7.3125 -3.59375l7.34375 0q-0.15625 -1.65625 -0.84375 -2.484375q-1.0625 -1.28125 -2.75 -1.28125q-1.546875 0 -2.59375 1.03125q-1.03125 1.015625 -1.15625 2.734375zm20.930054 7.828125l0 -1.65625q-1.25 1.953125 -3.671875 1.953125q-1.5625 0 -2.890625 -0.859375q-1.3125 -0.875 -2.046875 -2.421875q-0.71875 -1.546875 -0.71875 -3.5625q0 -1.96875 0.65625 -3.5625q0.65625 -1.609375 1.96875 -2.46875q1.3125 -0.859375 2.9375 -0.859375q1.1875 0 2.109375 0.515625q0.9375 0.5 1.515625 1.296875l0 -6.5l2.203125 0l0 18.125l-2.0625 0zm-7.03125 -6.546875q0 2.515625 1.0625 3.765625q1.0625 1.25 2.515625 1.25q1.453125 0 2.46875 -1.1875q1.03125 -1.203125 1.03125 -3.65625q0 -2.6875 -1.046875 -3.953125q-1.03125 -1.265625 -2.5625 -1.265625q-1.484375 0 -2.484375 1.21875q-0.984375 1.203125 -0.984375 3.828125zm13.789429 2.046875l-0.6875 -9.609375l0 -4.015625l2.765625 0l0 4.015625l-0.640625 9.609375l-1.4375 0zm-0.578125 4.5l0 -2.53125l2.546875 0l0 2.53125l-2.546875 0z" fill-rule="nonzero"/><defs><linearGradient id="p.3" gradientUnits="userSpaceOnUse" gradientTransform="matrix(8.94432119986724 0.0 0.0 8.94432119986724 0.0 0.0)" spreadMethod="pad" x1="82.74975857961054" y1="16.140584524699598" x2="82.74972189890754" y2="25.08490572449162"><stop offset="0.0" stop-color="#fff6db"/><stop offset="1.0" stop-color="#fad25c"/></linearGradient></defs><path fill="url(#p.3)" d="m740.14044 184.36745l0 0c0 -22.091385 17.90857 -40.0 40.0 -40.0l163.71649 0l0 0c10.608704 0 20.782837 4.214279 28.284302 11.715729c7.501465 7.501465 11.715698 17.675613 11.715698 28.284271l0 0l0 0c0 22.0914 -17.90857 40.0 -40.0 40.0l-163.71649 0c-22.09143 0 -40.0 -17.9086 -40.0 -40.0z" fill-rule="evenodd"/><path stroke="#000000" stroke-width="1.0" stroke-linejoin="round" stroke-linecap="butt" d="m740.14044 184.36745l0 0c0 -22.091385 17.90857 -40.0 40.0 -40.0l163.71649 0l0 0c10.608704 0 20.782837 4.214279 28.284302 11.715729c7.501465 7.501465 11.715698 17.675613 11.715698 28.284271l0 0l0 0c0 22.0914 -17.90857 40.0 -40.0 40.0l-163.71649 0c-22.09143 0 -40.0 -17.9086 -40.0 -40.0z" fill-rule="evenodd"/><path fill="#000000" d="m772.19 198.7187l0 -18.171875l2.03125 0l0 1.71875q0.71875 -1.0 1.609375 -1.5q0.90625 -0.515625 2.1875 -0.515625q1.6875 0 2.96875 0.875q1.296875 0.859375 1.953125 2.4375q0.65625 1.578125 0.65625 3.453125q0 2.015625 -0.734375 3.640625q-0.71875 1.609375 -2.09375 2.46875q-1.375 0.859375 -2.90625 0.859375q-1.109375 0 -2.0 -0.46875q-0.875 -0.46875 -1.453125 -1.1875l0 6.390625l-2.21875 0zm2.015625 -11.53125q0 2.546875 1.015625 3.765625q1.03125 1.203125 2.5 1.203125q1.484375 0 2.53125 -1.25q1.0625 -1.265625 1.0625 -3.890625q0 -2.515625 -1.03125 -3.765625q-1.03125 -1.25 -2.46875 -1.25q-1.421875 0 -2.515625 1.328125q-1.09375 1.328125 -1.09375 3.859375zm12.039429 6.5l0 -13.140625l2.0 0l0 2.0q0.78125 -1.40625 1.421875 -1.84375q0.65625 -0.453125 1.4375 -0.453125q1.125 0 2.28125 0.71875l-0.765625 2.078125q-0.8125 -0.484375 -1.640625 -0.484375q-0.71875 0 -1.3125 0.4375q-0.578125 0.4375 -0.828125 1.21875q-0.359375 1.1875 -0.359375 2.59375l0 6.875l-2.234375 0zm17.450073 -4.234375l2.296875 0.296875q-0.53125 2.015625 -2.015625 3.125q-1.46875 1.109375 -3.75 1.109375q-2.890625 0 -4.578125 -1.765625q-1.6875 -1.78125 -1.6875 -4.984375q0 -3.3125 1.703125 -5.140625q1.71875 -1.84375 4.4375 -1.84375q2.640625 0 4.296875 1.796875q1.671875 1.796875 1.671875 5.046875q0 0.203125 -0.015625 0.59375l-9.78125 0q0.109375 2.171875 1.203125 3.328125q1.109375 1.140625 2.765625 1.140625q1.21875 0 2.078125 -0.640625q0.875 -0.640625 1.375 -2.0625zm-7.3125 -3.59375l7.34375 0q-0.15625 -1.65625 -0.84375 -2.484375q-1.0625 -1.28125 -2.75 -1.28125q-1.546875 0 -2.59375 1.03125q-1.03125 1.015625 -1.15625 2.734375zm11.539429 2.390625l0 -2.25l6.84375 0l0 2.25l-6.84375 0zm17.871948 0.625l2.1875 0.28125q-0.34375 2.265625 -1.828125 3.546875q-1.484375 1.28125 -3.625 1.28125q-2.703125 0 -4.34375 -1.765625q-1.640625 -1.765625 -1.640625 -5.046875q0 -2.125 0.703125 -3.71875q0.71875 -1.59375 2.15625 -2.390625q1.4375 -0.8125 3.125 -0.8125q2.140625 0 3.5 1.09375q1.359375 1.078125 1.75 3.0625l-2.171875 0.34375q-0.296875 -1.328125 -1.09375 -1.984375q-0.78125 -0.671875 -1.890625 -0.671875q-1.6875 0 -2.734375 1.203125q-1.046875 1.203125 -1.046875 3.8125q0 2.640625 1.015625 3.84375q1.015625 1.203125 2.640625 1.203125q1.3125 0 2.1875 -0.796875q0.875 -0.8125 1.109375 -2.484375zm3.2734375 -1.75q0 -3.65625 2.03125 -5.40625q1.6875 -1.46875 4.125 -1.46875q2.703125 0 4.421875 1.78125q1.71875 1.78125 1.71875 4.90625q0 2.53125 -0.765625 3.984375q-0.75 1.453125 -2.203125 2.265625q-1.453125 0.796875 -3.171875 0.796875q-2.765625 0 -4.46875 -1.765625q-1.6875 -1.765625 -1.6875 -5.09375zm2.28125 0q0 2.515625 1.09375 3.78125q1.109375 1.25 2.78125 1.25q1.65625 0 2.75 -1.265625q1.109375 -1.265625 1.109375 -3.84375q0 -2.4375 -1.109375 -3.6875q-1.109375 -1.265625 -2.75 -1.265625q-1.671875 0 -2.78125 1.25q-1.09375 1.25 -1.09375 3.78125zm12.633179 6.5625l0 -13.140625l1.984375 0l0 1.84375q0.625 -0.953125 1.640625 -1.546875q1.03125 -0.59375 2.34375 -0.59375q1.46875 0 2.390625 0.609375q0.9375 0.609375 1.328125 1.703125q1.546875 -2.3125 4.046875 -2.3125q1.953125 0 3.0 1.09375q1.0625 1.078125 1.0625 3.328125l0 9.015625l-2.21875 0l0 -8.28125q0 -1.328125 -0.21875 -1.90625q-0.21875 -0.59375 -0.78125 -0.953125q-0.5625 -0.359375 -1.328125 -0.359375q-1.390625 0 -2.3125 0.921875q-0.90625 0.921875 -0.90625 2.953125l0 7.625l-2.234375 0l0 -8.53125q0 -1.484375 -0.546875 -2.21875q-0.53125 -0.75 -1.78125 -0.75q-0.9375 0 -1.734375 0.5q-0.796875 0.484375 -1.15625 1.4375q-0.359375 0.953125 -0.359375 2.75l0 6.8125l-2.21875 0zm21.098572 0l0 -13.140625l1.984375 0l0 1.84375q0.625 -0.953125 1.640625 -1.546875q1.03125 -0.59375 2.34375 -0.59375q1.46875 0 2.390625 0.609375q0.9375 0.609375 1.328125 1.703125q1.546875 -2.3125 4.046875 -2.3125q1.953125 0 3.0 1.09375q1.0625 1.078125 1.0625 3.328125l0 9.015625l-2.21875 0l0 -8.28125q0 -1.328125 -0.21875 -1.90625q-0.21875 -0.59375 -0.78125 -0.953125q-0.5625 -0.359375 -1.328125 -0.359375q-1.390625 0 -2.3125 0.921875q-0.90625 0.921875 -0.90625 2.953125l0 7.625l-2.234375 0l0 -8.53125q0 -1.484375 -0.546875 -2.21875q-0.53125 -0.75 -1.78125 -0.75q-0.9375 0 -1.734375 0.5q-0.796875 0.484375 -1.15625 1.4375q-0.359375 0.953125 -0.359375 2.75l0 6.8125l-2.21875 0zm21.114136 -15.578125l0 -2.546875l2.21875 0l0 2.546875l-2.21875 0zm0 15.578125l0 -13.140625l2.21875 0l0 13.140625l-2.21875 0zm10.470886 -1.984375l0.3125 1.953125q-0.9375 0.203125 -1.671875 0.203125q-1.21875 0 -1.890625 -0.375q-0.65625 -0.390625 -0.9375 -1.015625q-0.265625 -0.625 -0.265625 -2.625l0 -7.5625l-1.640625 0l0 -1.734375l1.640625 0l0 -3.25l2.21875 -1.328125l0 4.578125l2.234375 0l0 1.734375l-2.234375 0l0 7.6875q0 0.953125 0.109375 1.234375q0.125 0.265625 0.390625 0.421875q0.265625 0.15625 0.75 0.15625q0.375 0 0.984375 -0.078125zm9.183289 1.984375l0 -13.140625l2.0 0l0 2.0q0.78125 -1.40625 1.421875 -1.84375q0.65625 -0.453125 1.4375 -0.453125q1.125 0 2.28125 0.71875l-0.765625 2.078125q-0.8125 -0.484375 -1.640625 -0.484375q-0.71875 0 -1.3125 0.4375q-0.578125 0.4375 -0.828125 1.21875q-0.359375 1.1875 -0.359375 2.59375l0 6.875l-2.234375 0zm17.075073 0l0 -1.921875q-1.53125 2.21875 -4.171875 2.21875q-1.15625 0 -2.171875 -0.4375q-1.0 -0.453125 -1.5 -1.125q-0.484375 -0.671875 -0.6875 -1.65625q-0.125 -0.65625 -0.125 -2.078125l0 -8.140625l2.21875 0l0 7.296875q0 1.734375 0.140625 2.34375q0.203125 0.875 0.875 1.375q0.6875 0.5 1.6875 0.5q1.015625 0 1.890625 -0.5q0.875 -0.515625 1.234375 -1.40625q0.375 -0.890625 0.375 -2.5625l0 -7.046875l2.21875 0l0 13.140625l-1.984375 0zm5.4769287 0l0 -13.140625l2.0 0l0 1.875q1.453125 -2.171875 4.1875 -2.171875q1.1875 0 2.171875 0.4375q1.0 0.421875 1.484375 1.125q0.5 0.6875 0.703125 1.640625q0.125 0.609375 0.125 2.15625l0 8.078125l-2.234375 0l0 -7.984375q0 -1.359375 -0.265625 -2.03125q-0.25 -0.6875 -0.90625 -1.078125q-0.65625 -0.40625 -1.546875 -0.40625q-1.421875 0 -2.46875 0.90625q-1.03125 0.890625 -1.03125 3.421875l0 7.171875l-2.21875 0zm13.195679 -3.921875l2.203125 -0.34375q0.1875 1.328125 1.03125 2.03125q0.84375 0.703125 2.359375 0.703125q1.546875 0 2.28125 -0.625q0.75 -0.625 0.75 -1.46875q0 -0.75 -0.65625 -1.1875q-0.46875 -0.296875 -2.28125 -0.75q-2.453125 -0.625 -3.40625 -1.078125q-0.9375 -0.453125 -1.421875 -1.25q-0.484375 -0.796875 -0.484375 -1.75q0 -0.890625 0.390625 -1.625q0.40625 -0.75 1.09375 -1.25q0.53125 -0.390625 1.421875 -0.65625q0.890625 -0.265625 1.921875 -0.265625q1.546875 0 2.71875 0.453125q1.171875 0.4375 1.71875 1.203125q0.5625 0.765625 0.765625 2.03125l-2.171875 0.296875q-0.140625 -1.015625 -0.859375 -1.578125q-0.71875 -0.5625 -2.015625 -0.5625q-1.53125 0 -2.1875 0.5q-0.65625 0.5 -0.65625 1.1875q0 0.4375 0.28125 0.78125q0.265625 0.359375 0.84375 0.59375q0.34375 0.125 1.96875 0.5625q2.359375 0.640625 3.296875 1.046875q0.9375 0.390625 1.46875 1.15625q0.53125 0.765625 0.53125 1.90625q0 1.109375 -0.65625 2.09375q-0.640625 0.984375 -1.875 1.53125q-1.21875 0.53125 -2.765625 0.53125q-2.5625 0 -3.90625 -1.0625q-1.328125 -1.0625 -1.703125 -3.15625z" fill-rule="nonzero"/><defs><linearGradient id="p.4" gradientUnits="userSpaceOnUse" gradientTransform="matrix(12.657858218235214 0.0 0.0 12.657858218235214 0.0 0.0)" spreadMethod="pad" x1="58.47290430360475" y1="33.55890604462311" x2="58.47285894466869" y2="46.21676426277705"><stop offset="0.0" stop-color="#fff6db"/><stop offset="1.0" stop-color="#fad25c"/></linearGradient></defs><path fill="url(#p.4)" d="m740.1417 441.06638l0 0c0 -8.992065 7.289551 -16.281586 16.281616 -16.281586l211.15332 0c4.3181763 0 8.459473 1.7153625 11.512817 4.7687683c3.0534058 3.0533752 4.768799 7.1946716 4.768799 11.512817l0 127.65726c0 8.992065 -7.289551 16.281616 -16.281616 16.281616l-211.15332 0l0 0c-8.992065 0 -16.281616 -7.289551 -16.281616 -16.281616z" fill-rule="evenodd"/><path stroke="#000000" stroke-width="1.0" stroke-linejoin="round" stroke-linecap="butt" d="m740.1417 441.06638l0 0c0 -8.992065 7.289551 -16.281586 16.281616 -16.281586l211.15332 0c4.3181763 0 8.459473 1.7153625 11.512817 4.7687683c3.0534058 3.0533752 4.768799 7.1946716 4.768799 11.512817l0 127.65726c0 8.992065 -7.289551 16.281616 -16.281616 16.281616l-211.15332 0l0 0c-8.992065 0 -16.281616 -7.289551 -16.281616 -16.281616z" fill-rule="evenodd"/><path fill="#000000" d="m773.09015 455.30188q0.859375 0 1.6875 0.453125q0.828125 0.4375 1.28125 1.265625q0.46875 0.828125 0.46875 1.71875q0 1.421875 -1.015625 2.4375q-1.0 1.0 -2.421875 1.0q-1.4375 0 -2.453125 -1.0q-1.0 -1.015625 -1.0 -2.4375q0 -0.90625 0.453125 -1.71875q0.46875 -0.828125 1.296875 -1.265625q0.828125 -0.453125 1.703125 -0.453125z" fill-rule="nonzero"/><path fill="#000000" d="m803.22296 463.255l0 -11.453125l7.734375 0l0 1.34375l-6.21875 0l0 3.546875l5.375 0l0 1.359375l-5.375 0l0 5.203125l-1.515625 0zm9.5234375 -9.84375l0 -1.609375l1.40625 0l0 1.609375l-1.40625 0zm0 9.84375l0 -8.296875l1.40625 0l0 8.296875l-1.40625 0zm3.5234375 0l0 -11.453125l1.40625 0l0 11.453125l-1.40625 0zm9.2578125 -2.671875l1.453125 0.171875q-0.34375 1.28125 -1.28125 1.984375q-0.921875 0.703125 -2.359375 0.703125q-1.828125 0 -2.890625 -1.125q-1.0625 -1.125 -1.0625 -3.140625q0 -2.09375 1.078125 -3.25q1.078125 -1.15625 2.796875 -1.15625q1.65625 0 2.703125 1.140625q1.0625 1.125 1.0625 3.171875q0 0.125 0 0.375l-6.1875 0q0.078125 1.375 0.765625 2.109375q0.703125 0.71875 1.734375 0.71875q0.78125 0 1.328125 -0.40625q0.546875 -0.40625 0.859375 -1.296875zm-4.609375 -2.28125l4.625 0q-0.09375 -1.046875 -0.53125 -1.5625q-0.671875 -0.8125 -1.734375 -0.8125q-0.96875 0 -1.640625 0.65625q-0.65625 0.640625 -0.71875 1.71875zm7.2734375 2.46875l1.390625 -0.21875q0.109375 0.84375 0.640625 1.296875q0.546875 0.4375 1.5 0.4375q0.96875 0 1.4375 -0.390625q0.46875 -0.40625 0.46875 -0.9375q0 -0.46875 -0.40625 -0.75q-0.296875 -0.1875 -1.4375 -0.46875q-1.546875 -0.390625 -2.15625 -0.671875q-0.59375 -0.296875 -0.90625 -0.796875q-0.296875 -0.5 -0.296875 -1.109375q0 -0.5625 0.25 -1.03125q0.25 -0.46875 0.6875 -0.78125q0.328125 -0.25 0.890625 -0.40625q0.578125 -0.171875 1.21875 -0.171875q0.984375 0 1.71875 0.28125q0.734375 0.28125 1.078125 0.765625q0.359375 0.46875 0.5 1.28125l-1.375 0.1875q-0.09375 -0.640625 -0.546875 -1.0q-0.453125 -0.359375 -1.265625 -0.359375q-0.96875 0 -1.390625 0.328125q-0.40625 0.3125 -0.40625 0.734375q0 0.28125 0.171875 0.5q0.171875 0.21875 0.53125 0.375q0.21875 0.078125 1.25 0.359375q1.484375 0.390625 2.078125 0.65625q0.59375 0.25 0.921875 0.734375q0.34375 0.484375 0.34375 1.203125q0 0.703125 -0.421875 1.328125q-0.40625 0.609375 -1.1875 0.953125q-0.765625 0.34375 -1.734375 0.34375q-1.625 0 -2.46875 -0.671875q-0.84375 -0.671875 -1.078125 -2.0zm13.0078125 2.484375l0 -11.453125l1.40625 0l0 4.109375q0.984375 -1.140625 2.484375 -1.140625q0.921875 0 1.59375 0.359375q0.6875 0.359375 0.96875 1.0q0.296875 0.640625 0.296875 1.859375l0 5.265625l-1.40625 0l0 -5.265625q0 -1.046875 -0.453125 -1.53125q-0.453125 -0.484375 -1.296875 -0.484375q-0.625 0 -1.171875 0.328125q-0.546875 0.328125 -0.78125 0.890625q-0.234375 0.546875 -0.234375 1.515625l0 4.546875l-1.40625 0zm14.3046875 -1.03125q-0.78125 0.671875 -1.5 0.953125q-0.71875 0.265625 -1.546875 0.265625q-1.375 0 -2.109375 -0.671875q-0.734375 -0.671875 -0.734375 -1.703125q0 -0.609375 0.28125 -1.109375q0.28125 -0.515625 0.71875 -0.8125q0.453125 -0.3125 1.015625 -0.46875q0.421875 -0.109375 1.25 -0.203125q1.703125 -0.203125 2.515625 -0.484375q0 -0.296875 0 -0.375q0 -0.859375 -0.390625 -1.203125q-0.546875 -0.484375 -1.609375 -0.484375q-0.984375 0 -1.46875 0.359375q-0.46875 0.34375 -0.6875 1.21875l-1.375 -0.1875q0.1875 -0.875 0.609375 -1.421875q0.4375 -0.546875 1.25 -0.828125q0.8125 -0.296875 1.875 -0.296875q1.0625 0 1.71875 0.25q0.671875 0.25 0.984375 0.625q0.3125 0.375 0.4375 0.953125q0.078125 0.359375 0.078125 1.296875l0 1.875q0 1.96875 0.078125 2.484375q0.09375 0.515625 0.359375 1.0l-1.46875 0q-0.21875 -0.4375 -0.28125 -1.03125zm-0.109375 -3.140625q-0.765625 0.3125 -2.296875 0.53125q-0.875 0.125 -1.234375 0.28125q-0.359375 0.15625 -0.5625 0.46875q-0.1875 0.296875 -0.1875 0.65625q0 0.5625 0.421875 0.9375q0.4375 0.375 1.25 0.375q0.8125 0 1.4375 -0.34375q0.640625 -0.359375 0.9375 -0.984375q0.234375 -0.46875 0.234375 -1.40625l0 -0.515625zm5.8984375 4.171875l-3.15625 -8.296875l1.484375 0l1.78125 4.96875q0.296875 0.796875 0.53125 1.671875q0.1875 -0.65625 0.53125 -1.578125l1.84375 -5.0625l1.4375 0l-3.140625 8.296875l-1.3125 0zm11.375 -2.671875l1.453125 0.171875q-0.34375 1.28125 -1.28125 1.984375q-0.921875 0.703125 -2.359375 0.703125q-1.828125 0 -2.890625 -1.125q-1.0625 -1.125 -1.0625 -3.140625q0 -2.09375 1.078125 -3.25q1.078125 -1.15625 2.796875 -1.15625q1.65625 0 2.703125 1.140625q1.0625 1.125 1.0625 3.171875q0 0.125 0 0.375l-6.1875 0q0.078125 1.375 0.765625 2.109375q0.703125 0.71875 1.734375 0.71875q0.78125 0 1.328125 -0.40625q0.546875 -0.40625 0.859375 -1.296875zm-4.609375 -2.28125l4.625 0q-0.09375 -1.046875 -0.53125 -1.5625q-0.671875 -0.8125 -1.734375 -0.8125q-0.96875 0 -1.640625 0.65625q-0.65625 0.640625 -0.71875 1.71875zm13.578125 4.953125l-1.3125 0l0 -11.453125l1.40625 0l0 4.078125q0.890625 -1.109375 2.28125 -1.109375q0.765625 0 1.4375 0.3125q0.6875 0.296875 1.125 0.859375q0.453125 0.5625 0.703125 1.359375q0.25 0.78125 0.25 1.671875q0 2.140625 -1.0625 3.3125q-1.046875 1.15625 -2.53125 1.15625q-1.46875 0 -2.296875 -1.234375l0 1.046875zm-0.015625 -4.21875q0 1.5 0.40625 2.15625q0.65625 1.09375 1.796875 1.09375q0.921875 0 1.59375 -0.796875q0.671875 -0.8125 0.671875 -2.390625q0 -1.625 -0.65625 -2.390625q-0.640625 -0.78125 -1.546875 -0.78125q-0.921875 0 -1.59375 0.796875q-0.671875 0.796875 -0.671875 2.3125zm13.2890625 1.546875l1.453125 0.171875q-0.34375 1.28125 -1.28125 1.984375q-0.921875 0.703125 -2.359375 0.703125q-1.828125 0 -2.890625 -1.125q-1.0625 -1.125 -1.0625 -3.140625q0 -2.09375 1.078125 -3.25q1.078125 -1.15625 2.796875 -1.15625q1.65625 0 2.703125 1.140625q1.0625 1.125 1.0625 3.171875q0 0.125 0 0.375l-6.1875 0q0.078125 1.375 0.765625 2.109375q0.703125 0.71875 1.734375 0.71875q0.78125 0 1.328125 -0.40625q0.546875 -0.40625 0.859375 -1.296875zm-4.609375 -2.28125l4.625 0q-0.09375 -1.046875 -0.53125 -1.5625q-0.671875 -0.8125 -1.734375 -0.8125q-0.96875 0 -1.640625 0.65625q-0.65625 0.640625 -0.71875 1.71875zm13.5078125 2.28125l1.453125 0.171875q-0.34375 1.28125 -1.28125 1.984375q-0.921875 0.703125 -2.359375 0.703125q-1.828125 0 -2.890625 -1.125q-1.0625 -1.125 -1.0625 -3.140625q0 -2.09375 1.078125 -3.25q1.078125 -1.15625 2.796875 -1.15625q1.65625 0 2.703125 1.140625q1.0625 1.125 1.0625 3.171875q0 0.125 0 0.375l-6.1875 0q0.078125 1.375 0.765625 2.109375q0.703125 0.71875 1.734375 0.71875q0.78125 0 1.328125 -0.40625q0.546875 -0.40625 0.859375 -1.296875zm-4.609375 -2.28125l4.625 0q-0.09375 -1.046875 -0.53125 -1.5625q-0.671875 -0.8125 -1.734375 -0.8125q-0.96875 0 -1.640625 0.65625q-0.65625 0.640625 -0.71875 1.71875zm7.8359375 4.953125l0 -8.296875l1.265625 0l0 1.171875q0.90625 -1.359375 2.640625 -1.359375q0.75 0 1.375 0.265625q0.625 0.265625 0.9375 0.703125q0.3125 0.4375 0.4375 1.046875q0.078125 0.390625 0.078125 1.359375l0 5.109375l-1.40625 0l0 -5.046875q0 -0.859375 -0.171875 -1.28125q-0.15625 -0.4375 -0.578125 -0.6875q-0.40625 -0.25 -0.96875 -0.25q-0.90625 0 -1.5625 0.578125q-0.640625 0.5625 -0.640625 2.15625l0 4.53125l-1.40625 0z" fill-rule="nonzero"/><path fill="#000000" d="m808.3792 479.20813l1.390625 0.1875q-0.234375 1.421875 -1.171875 2.234375q-0.921875 0.8125 -2.28125 0.8125q-1.703125 0 -2.75 -1.109375q-1.03125 -1.125 -1.03125 -3.203125q0 -1.34375 0.4375 -2.34375q0.453125 -1.015625 1.359375 -1.515625q0.921875 -0.5 1.984375 -0.5q1.359375 0 2.21875 0.6875q0.859375 0.671875 1.09375 1.9375l-1.359375 0.203125q-0.203125 -0.828125 -0.703125 -1.25q-0.484375 -0.421875 -1.1875 -0.421875q-1.0625 0 -1.734375 0.765625q-0.65625 0.75 -0.65625 2.40625q0 1.671875 0.640625 2.4375q0.640625 0.75 1.671875 0.75q0.828125 0 1.375 -0.5q0.5625 -0.515625 0.703125 -1.578125zm2.59375 3.046875l0 -11.453125l1.40625 0l0 4.109375q0.984375 -1.140625 2.484375 -1.140625q0.921875 0 1.59375 0.359375q0.6875 0.359375 0.96875 1.0q0.296875 0.640625 0.296875 1.859375l0 5.265625l-1.40625 0l0 -5.265625q0 -1.046875 -0.453125 -1.53125q-0.453125 -0.484375 -1.296875 -0.484375q-0.625 0 -1.171875 0.328125q-0.546875 0.328125 -0.78125 0.890625q-0.234375 0.546875 -0.234375 1.515625l0 4.546875l-1.40625 0zm14.3046875 -1.03125q-0.78125 0.671875 -1.5 0.953125q-0.71875 0.265625 -1.546875 0.265625q-1.375 0 -2.109375 -0.671875q-0.734375 -0.671875 -0.734375 -1.703125q0 -0.609375 0.28125 -1.109375q0.28125 -0.515625 0.71875 -0.8125q0.453125 -0.3125 1.015625 -0.46875q0.421875 -0.109375 1.25 -0.203125q1.703125 -0.203125 2.515625 -0.484375q0 -0.296875 0 -0.375q0 -0.859375 -0.390625 -1.203125q-0.546875 -0.484375 -1.609375 -0.484375q-0.984375 0 -1.46875 0.359375q-0.46875 0.34375 -0.6875 1.21875l-1.375 -0.1875q0.1875 -0.875 0.609375 -1.421875q0.4375 -0.546875 1.25 -0.828125q0.8125 -0.296875 1.875 -0.296875q1.0625 0 1.71875 0.25q0.671875 0.25 0.984375 0.625q0.3125 0.375 0.4375 0.953125q0.078125 0.359375 0.078125 1.296875l0 1.875q0 1.96875 0.078125 2.484375q0.09375 0.515625 0.359375 1.0l-1.46875 0q-0.21875 -0.4375 -0.28125 -1.03125zm-0.109375 -3.140625q-0.765625 0.3125 -2.296875 0.53125q-0.875 0.125 -1.234375 0.28125q-0.359375 0.15625 -0.5625 0.46875q-0.1875 0.296875 -0.1875 0.65625q0 0.5625 0.421875 0.9375q0.4375 0.375 1.25 0.375q0.8125 0 1.4375 -0.34375q0.640625 -0.359375 0.9375 -0.984375q0.234375 -0.46875 0.234375 -1.40625l0 -0.515625zm3.6015625 4.171875l0 -8.296875l1.265625 0l0 1.171875q0.90625 -1.359375 2.640625 -1.359375q0.75 0 1.375 0.265625q0.625 0.265625 0.9375 0.703125q0.3125 0.4375 0.4375 1.046875q0.078125 0.390625 0.078125 1.359375l0 5.109375l-1.40625 0l0 -5.046875q0 -0.859375 -0.171875 -1.28125q-0.15625 -0.4375 -0.578125 -0.6875q-0.40625 -0.25 -0.96875 -0.25q-0.90625 0 -1.5625 0.578125q-0.640625 0.5625 -0.640625 2.15625l0 4.53125l-1.40625 0zm8.6328125 0.6875l1.375 0.203125q0.078125 0.640625 0.46875 0.921875q0.53125 0.390625 1.4375 0.390625q0.96875 0 1.5 -0.390625q0.53125 -0.390625 0.71875 -1.09375q0.109375 -0.421875 0.109375 -1.8125q-0.921875 1.09375 -2.296875 1.09375q-1.71875 0 -2.65625 -1.234375q-0.9375 -1.234375 -0.9375 -2.96875q0 -1.1875 0.421875 -2.1875q0.4375 -1.0 1.25 -1.546875q0.828125 -0.546875 1.921875 -0.546875q1.46875 0 2.421875 1.1875l0 -1.0l1.296875 0l0 7.171875q0 1.9375 -0.390625 2.75q-0.390625 0.8125 -1.25 1.28125q-0.859375 0.46875 -2.109375 0.46875q-1.484375 0 -2.40625 -0.671875q-0.90625 -0.671875 -0.875 -2.015625zm1.171875 -4.984375q0 1.625 0.640625 2.375q0.65625 0.75 1.625 0.75q0.96875 0 1.625 -0.734375q0.65625 -0.75 0.65625 -2.34375q0 -1.53125 -0.671875 -2.296875q-0.671875 -0.78125 -1.625 -0.78125q-0.9375 0 -1.59375 0.765625q-0.65625 0.765625 -0.65625 2.265625zm13.6640625 1.625l1.453125 0.171875q-0.34375 1.28125 -1.28125 1.984375q-0.921875 0.703125 -2.359375 0.703125q-1.828125 0 -2.890625 -1.125q-1.0625 -1.125 -1.0625 -3.140625q0 -2.09375 1.078125 -3.25q1.078125 -1.15625 2.796875 -1.15625q1.65625 0 2.703125 1.140625q1.0625 1.125 1.0625 3.171875q0 0.125 0 0.375l-6.1875 0q0.078125 1.375 0.765625 2.109375q0.703125 0.71875 1.734375 0.71875q0.78125 0 1.328125 -0.40625q0.546875 -0.40625 0.859375 -1.296875zm-4.609375 -2.28125l4.625 0q-0.09375 -1.046875 -0.53125 -1.5625q-0.671875 -0.8125 -1.734375 -0.8125q-0.96875 0 -1.640625 0.65625q-0.65625 0.640625 -0.71875 1.71875zm13.2109375 4.953125l0 -1.046875q-0.78125 1.234375 -2.3125 1.234375q-1.0 0 -1.828125 -0.546875q-0.828125 -0.546875 -1.296875 -1.53125q-0.453125 -0.984375 -0.453125 -2.25q0 -1.25 0.40625 -2.25q0.421875 -1.015625 1.25 -1.546875q0.828125 -0.546875 1.859375 -0.546875q0.75 0 1.328125 0.3125q0.59375 0.3125 0.953125 0.828125l0 -4.109375l1.40625 0l0 11.453125l-1.3125 0zm-4.4375 -4.140625q0 1.59375 0.671875 2.390625q0.671875 0.78125 1.578125 0.78125q0.921875 0 1.5625 -0.75q0.65625 -0.765625 0.65625 -2.3125q0 -1.703125 -0.65625 -2.5q-0.65625 -0.796875 -1.625 -0.796875q-0.9375 0 -1.5625 0.765625q-0.625 0.765625 -0.625 2.421875zm13.703125 4.140625l-1.3125 0l0 -11.453125l1.40625 0l0 4.078125q0.890625 -1.109375 2.28125 -1.109375q0.765625 0 1.4375 0.3125q0.6875 0.296875 1.125 0.859375q0.453125 0.5625 0.703125 1.359375q0.25 0.78125 0.25 1.671875q0 2.140625 -1.0625 3.3125q-1.046875 1.15625 -2.53125 1.15625q-1.46875 0 -2.296875 -1.234375l0 1.046875zm-0.015625 -4.21875q0 1.5 0.40625 2.15625q0.65625 1.09375 1.796875 1.09375q0.921875 0 1.59375 -0.796875q0.671875 -0.8125 0.671875 -2.390625q0 -1.625 -0.65625 -2.390625q-0.640625 -0.78125 -1.546875 -0.78125q-0.921875 0 -1.59375 0.796875q-0.671875 0.796875 -0.671875 2.3125zm7.5546875 7.421875l-0.15625 -1.328125q0.453125 0.125 0.796875 0.125q0.46875 0 0.75 -0.15625q0.28125 -0.15625 0.46875 -0.4375q0.125 -0.203125 0.421875 -1.046875q0.046875 -0.109375 0.125 -0.34375l-3.140625 -8.3125l1.515625 0l1.71875 4.796875q0.34375 0.921875 0.609375 1.921875q0.234375 -0.96875 0.578125 -1.890625l1.765625 -4.828125l1.40625 0l-3.15625 8.4375q-0.5 1.375 -0.78125 1.890625q-0.375 0.6875 -0.859375 1.015625q-0.484375 0.328125 -1.15625 0.328125q-0.40625 0 -0.90625 -0.171875zm17.914062 -6.25l1.390625 0.1875q-0.234375 1.421875 -1.171875 2.234375q-0.921875 0.8125 -2.28125 0.8125q-1.703125 0 -2.75 -1.109375q-1.03125 -1.125 -1.03125 -3.203125q0 -1.34375 0.4375 -2.34375q0.453125 -1.015625 1.359375 -1.515625q0.921875 -0.5 1.984375 -0.5q1.359375 0 2.21875 0.6875q0.859375 0.671875 1.09375 1.9375l-1.359375 0.203125q-0.203125 -0.828125 -0.703125 -1.25q-0.484375 -0.421875 -1.1875 -0.421875q-1.0625 0 -1.734375 0.765625q-0.65625 0.75 -0.65625 2.40625q0 1.671875 0.640625 2.4375q0.640625 0.75 1.671875 0.75q0.828125 0 1.375 -0.5q0.5625 -0.515625 0.703125 -1.578125zm2.0625 -1.109375q0 -2.296875 1.28125 -3.40625q1.078125 -0.921875 2.609375 -0.921875q1.71875 0 2.796875 1.125q1.09375 1.109375 1.09375 3.09375q0 1.59375 -0.484375 2.515625q-0.484375 0.921875 -1.40625 1.4375q-0.90625 0.5 -2.0 0.5q-1.734375 0 -2.8125 -1.109375q-1.078125 -1.125 -1.078125 -3.234375zm1.453125 0q0 1.59375 0.6875 2.390625q0.703125 0.796875 1.75 0.796875q1.046875 0 1.734375 -0.796875q0.703125 -0.796875 0.703125 -2.4375q0 -1.53125 -0.703125 -2.328125q-0.6875 -0.796875 -1.734375 -0.796875q-1.046875 0 -1.75 0.796875q-0.6875 0.78125 -0.6875 2.375zm13.3515625 4.15625l0 -1.046875q-0.78125 1.234375 -2.3125 1.234375q-1.0 0 -1.828125 -0.546875q-0.828125 -0.546875 -1.296875 -1.53125q-0.453125 -0.984375 -0.453125 -2.25q0 -1.25 0.40625 -2.25q0.421875 -1.015625 1.25 -1.546875q0.828125 -0.546875 1.859375 -0.546875q0.75 0 1.328125 0.3125q0.59375 0.3125 0.953125 0.828125l0 -4.109375l1.40625 0l0 11.453125l-1.3125 0zm-4.4375 -4.140625q0 1.59375 0.671875 2.390625q0.671875 0.78125 1.578125 0.78125q0.921875 0 1.5625 -0.75q0.65625 -0.765625 0.65625 -2.3125q0 -1.703125 -0.65625 -2.5q-0.65625 -0.796875 -1.625 -0.796875q-0.9375 0 -1.5625 0.765625q-0.625 0.765625 -0.625 2.421875zm13.6328125 1.46875l1.453125 0.171875q-0.34375 1.28125 -1.28125 1.984375q-0.921875 0.703125 -2.359375 0.703125q-1.828125 0 -2.890625 -1.125q-1.0625 -1.125 -1.0625 -3.140625q0 -2.09375 1.078125 -3.25q1.078125 -1.15625 2.796875 -1.15625q1.65625 0 2.703125 1.140625q1.0625 1.125 1.0625 3.171875q0 0.125 0 0.375l-6.1875 0q0.078125 1.375 0.765625 2.109375q0.703125 0.71875 1.734375 0.71875q0.78125 0 1.328125 -0.40625q0.546875 -0.40625 0.859375 -1.296875zm-4.609375 -2.28125l4.625 0q-0.09375 -1.046875 -0.53125 -1.5625q-0.671875 -0.8125 -1.734375 -0.8125q-0.96875 0 -1.640625 0.65625q-0.65625 0.640625 -0.71875 1.71875z" fill-rule="nonzero"/><path fill="#000000" d="m803.3011 501.255l0 -7.203125l-1.234375 0l0 -1.09375l1.234375 0l0 -0.890625q0 -0.828125 0.15625 -1.234375q0.203125 -0.546875 0.703125 -0.890625q0.515625 -0.34375 1.4375 -0.34375q0.59375 0 1.3125 0.140625l-0.203125 1.234375q-0.4375 -0.078125 -0.828125 -0.078125q-0.640625 0 -0.90625 0.28125q-0.265625 0.265625 -0.265625 1.015625l0 0.765625l1.609375 0l0 1.09375l-1.609375 0l0 7.203125l-1.40625 0zm3.5859375 -4.15625q0 -2.296875 1.28125 -3.40625q1.078125 -0.921875 2.609375 -0.921875q1.71875 0 2.796875 1.125q1.09375 1.109375 1.09375 3.09375q0 1.59375 -0.484375 2.515625q-0.484375 0.921875 -1.40625 1.4375q-0.90625 0.5 -2.0 0.5q-1.734375 0 -2.8125 -1.109375q-1.078125 -1.125 -1.078125 -3.234375zm1.453125 0q0 1.59375 0.6875 2.390625q0.703125 0.796875 1.75 0.796875q1.046875 0 1.734375 -0.796875q0.703125 -0.796875 0.703125 -2.4375q0 -1.53125 -0.703125 -2.328125q-0.6875 -0.796875 -1.734375 -0.796875q-1.046875 0 -1.75 0.796875q-0.6875 0.78125 -0.6875 2.375zm7.9609375 4.15625l0 -8.296875l1.265625 0l0 1.25q0.484375 -0.875 0.890625 -1.15625q0.40625 -0.28125 0.90625 -0.28125q0.703125 0 1.4375 0.453125l-0.484375 1.296875q-0.515625 -0.296875 -1.03125 -0.296875q-0.453125 0 -0.828125 0.28125q-0.359375 0.265625 -0.515625 0.765625q-0.234375 0.75 -0.234375 1.640625l0 4.34375l-1.40625 0zm5.34375 0l0 -8.296875l1.25 0l0 1.15625q0.390625 -0.609375 1.03125 -0.96875q0.65625 -0.375 1.484375 -0.375q0.921875 0 1.515625 0.390625q0.59375 0.375 0.828125 1.0625q0.984375 -1.453125 2.5625 -1.453125q1.234375 0 1.890625 0.6875q0.671875 0.671875 0.671875 2.09375l0 5.703125l-1.390625 0l0 -5.234375q0 -0.84375 -0.140625 -1.203125q-0.140625 -0.375 -0.5 -0.59375q-0.359375 -0.234375 -0.84375 -0.234375q-0.875 0 -1.453125 0.578125q-0.578125 0.578125 -0.578125 1.859375l0 4.828125l-1.40625 0l0 -5.390625q0 -0.9375 -0.34375 -1.40625q-0.34375 -0.46875 -1.125 -0.46875q-0.59375 0 -1.09375 0.3125q-0.5 0.3125 -0.734375 0.921875q-0.21875 0.59375 -0.21875 1.71875l0 4.3125l-1.40625 0zm18.734375 -1.03125q-0.78125 0.671875 -1.5 0.953125q-0.71875 0.265625 -1.546875 0.265625q-1.375 0 -2.109375 -0.671875q-0.734375 -0.671875 -0.734375 -1.703125q0 -0.609375 0.28125 -1.109375q0.28125 -0.515625 0.71875 -0.8125q0.453125 -0.3125 1.015625 -0.46875q0.421875 -0.109375 1.25 -0.203125q1.703125 -0.203125 2.515625 -0.484375q0 -0.296875 0 -0.375q0 -0.859375 -0.390625 -1.203125q-0.546875 -0.484375 -1.609375 -0.484375q-0.984375 0 -1.46875 0.359375q-0.46875 0.34375 -0.6875 1.21875l-1.375 -0.1875q0.1875 -0.875 0.609375 -1.421875q0.4375 -0.546875 1.25 -0.828125q0.8125 -0.296875 1.875 -0.296875q1.0625 0 1.71875 0.25q0.671875 0.25 0.984375 0.625q0.3125 0.375 0.4375 0.953125q0.078125 0.359375 0.078125 1.296875l0 1.875q0 1.96875 0.078125 2.484375q0.09375 0.515625 0.359375 1.0l-1.46875 0q-0.21875 -0.4375 -0.28125 -1.03125zm-0.109375 -3.140625q-0.765625 0.3125 -2.296875 0.53125q-0.875 0.125 -1.234375 0.28125q-0.359375 0.15625 -0.5625 0.46875q-0.1875 0.296875 -0.1875 0.65625q0 0.5625 0.421875 0.9375q0.4375 0.375 1.25 0.375q0.8125 0 1.4375 -0.34375q0.640625 -0.359375 0.9375 -0.984375q0.234375 -0.46875 0.234375 -1.40625l0 -0.515625zm6.6640625 2.90625l0.203125 1.25q-0.59375 0.125 -1.0625 0.125q-0.765625 0 -1.1875 -0.234375q-0.421875 -0.25 -0.59375 -0.640625q-0.171875 -0.40625 -0.171875 -1.671875l0 -4.765625l-1.03125 0l0 -1.09375l1.03125 0l0 -2.0625l1.40625 -0.84375l0 2.90625l1.40625 0l0 1.09375l-1.40625 0l0 4.84375q0 0.609375 0.0625 0.78125q0.078125 0.171875 0.25 0.28125q0.171875 0.09375 0.484375 0.09375q0.234375 0 0.609375 -0.0625zm4.4453125 0l0.203125 1.25q-0.59375 0.125 -1.0625 0.125q-0.765625 0 -1.1875 -0.234375q-0.421875 -0.25 -0.59375 -0.640625q-0.171875 -0.40625 -0.171875 -1.671875l0 -4.765625l-1.03125 0l0 -1.09375l1.03125 0l0 -2.0625l1.40625 -0.84375l0 2.90625l1.40625 0l0 1.09375l-1.40625 0l0 4.84375q0 0.609375 0.0625 0.78125q0.078125 0.171875 0.25 0.28125q0.171875 0.09375 0.484375 0.09375q0.234375 0 0.609375 -0.0625zm7.0546875 -1.40625l1.453125 0.171875q-0.34375 1.28125 -1.28125 1.984375q-0.921875 0.703125 -2.359375 0.703125q-1.828125 0 -2.890625 -1.125q-1.0625 -1.125 -1.0625 -3.140625q0 -2.09375 1.078125 -3.25q1.078125 -1.15625 2.796875 -1.15625q1.65625 0 2.703125 1.140625q1.0625 1.125 1.0625 3.171875q0 0.125 0 0.375l-6.1875 0q0.078125 1.375 0.765625 2.109375q0.703125 0.71875 1.734375 0.71875q0.78125 0 1.328125 -0.40625q0.546875 -0.40625 0.859375 -1.296875zm-4.609375 -2.28125l4.625 0q-0.09375 -1.046875 -0.53125 -1.5625q-0.671875 -0.8125 -1.734375 -0.8125q-0.96875 0 -1.640625 0.65625q-0.65625 0.640625 -0.71875 1.71875zm7.8203125 4.953125l0 -8.296875l1.265625 0l0 1.25q0.484375 -0.875 0.890625 -1.15625q0.40625 -0.28125 0.90625 -0.28125q0.703125 0 1.4375 0.453125l-0.484375 1.296875q-0.515625 -0.296875 -1.03125 -0.296875q-0.453125 0 -0.828125 0.28125q-0.359375 0.265625 -0.515625 0.765625q-0.234375 0.75 -0.234375 1.640625l0 4.34375l-1.40625 0zm8.03125 3.375q-1.171875 -1.46875 -1.984375 -3.4375q-0.796875 -1.984375 -0.796875 -4.09375q0 -1.859375 0.609375 -3.5625q0.703125 -1.96875 2.171875 -3.9375l1.0 0q-0.9375 1.625 -1.25 2.328125q-0.46875 1.078125 -0.75 2.25q-0.328125 1.453125 -0.328125 2.9375q0 3.75 2.328125 7.515625l-1.0 0zm2.078125 -5.859375l1.390625 -0.21875q0.109375 0.84375 0.640625 1.296875q0.546875 0.4375 1.5 0.4375q0.96875 0 1.4375 -0.390625q0.46875 -0.40625 0.46875 -0.9375q0 -0.46875 -0.40625 -0.75q-0.296875 -0.1875 -1.4375 -0.46875q-1.546875 -0.390625 -2.15625 -0.671875q-0.59375 -0.296875 -0.90625 -0.796875q-0.296875 -0.5 -0.296875 -1.109375q0 -0.5625 0.25 -1.03125q0.25 -0.46875 0.6875 -0.78125q0.328125 -0.25 0.890625 -0.40625q0.578125 -0.171875 1.21875 -0.171875q0.984375 0 1.71875 0.28125q0.734375 0.28125 1.078125 0.765625q0.359375 0.46875 0.5 1.28125l-1.375 0.1875q-0.09375 -0.640625 -0.546875 -1.0q-0.453125 -0.359375 -1.265625 -0.359375q-0.96875 0 -1.390625 0.328125q-0.40625 0.3125 -0.40625 0.734375q0 0.28125 0.171875 0.5q0.171875 0.21875 0.53125 0.375q0.21875 0.078125 1.25 0.359375q1.484375 0.390625 2.078125 0.65625q0.59375 0.25 0.921875 0.734375q0.34375 0.484375 0.34375 1.203125q0 0.703125 -0.421875 1.328125q-0.40625 0.609375 -1.1875 0.953125q-0.765625 0.34375 -1.734375 0.34375q-1.625 0 -2.46875 -0.671875q-0.84375 -0.671875 -1.078125 -2.0zm9.484375 5.859375l-1.015625 0q2.34375 -3.765625 2.34375 -7.515625q0 -1.46875 -0.34375 -2.921875q-0.265625 -1.171875 -0.734375 -2.25q-0.3125 -0.703125 -1.265625 -2.34375l1.015625 0q1.46875 1.96875 2.171875 3.9375q0.59375 1.703125 0.59375 3.5625q0 2.109375 -0.8125 4.09375q-0.796875 1.96875 -1.953125 3.4375z" fill-rule="nonzero"/><path fill="#000000" d="m773.09015 531.3019q0.859375 0 1.6875 0.453125q0.828125 0.4375 1.28125 1.265625q0.46875 0.828125 0.46875 1.71875q0 1.421875 -1.015625 2.4375q-1.0 1.0 -2.421875 1.0q-1.4375 0 -2.453125 -1.0q-1.0 -1.015625 -1.0 -2.4375q0 -0.90625 0.453125 -1.71875q0.46875 -0.828125 1.296875 -1.265625q0.828125 -0.453125 1.703125 -0.453125z" fill-rule="nonzero"/><path fill="#000000" d="m803.22296 539.255l0 -11.453125l7.734375 0l0 1.34375l-6.21875 0l0 3.546875l5.375 0l0 1.359375l-5.375 0l0 5.203125l-1.515625 0zm9.5234375 -9.84375l0 -1.609375l1.40625 0l0 1.609375l-1.40625 0zm0 9.84375l0 -8.296875l1.40625 0l0 8.296875l-1.40625 0zm3.5234375 0l0 -11.453125l1.40625 0l0 11.453125l-1.40625 0zm9.2578125 -2.671875l1.453125 0.171875q-0.34375 1.28125 -1.28125 1.984375q-0.921875 0.703125 -2.359375 0.703125q-1.828125 0 -2.890625 -1.125q-1.0625 -1.125 -1.0625 -3.140625q0 -2.09375 1.078125 -3.25q1.078125 -1.15625 2.796875 -1.15625q1.65625 0 2.703125 1.140625q1.0625 1.125 1.0625 3.171875q0 0.125 0 0.375l-6.1875 0q0.078125 1.375 0.765625 2.109375q0.703125 0.71875 1.734375 0.71875q0.78125 0 1.328125 -0.40625q0.546875 -0.40625 0.859375 -1.296875zm-4.609375 -2.28125l4.625 0q-0.09375 -1.046875 -0.53125 -1.5625q-0.671875 -0.8125 -1.734375 -0.8125q-0.96875 0 -1.640625 0.65625q-0.65625 0.640625 -0.71875 1.71875zm7.2734375 2.46875l1.390625 -0.21875q0.109375 0.84375 0.640625 1.296875q0.546875 0.4375 1.5 0.4375q0.96875 0 1.4375 -0.390625q0.46875 -0.40625 0.46875 -0.9375q0 -0.46875 -0.40625 -0.75q-0.296875 -0.1875 -1.4375 -0.46875q-1.546875 -0.390625 -2.15625 -0.671875q-0.59375 -0.296875 -0.90625 -0.796875q-0.296875 -0.5 -0.296875 -1.109375q0 -0.5625 0.25 -1.03125q0.25 -0.46875 0.6875 -0.78125q0.328125 -0.25 0.890625 -0.40625q0.578125 -0.171875 1.21875 -0.171875q0.984375 0 1.71875 0.28125q0.734375 0.28125 1.078125 0.765625q0.359375 0.46875 0.5 1.28125l-1.375 0.1875q-0.09375 -0.640625 -0.546875 -1.0q-0.453125 -0.359375 -1.265625 -0.359375q-0.96875 0 -1.390625 0.328125q-0.40625 0.3125 -0.40625 0.734375q0 0.28125 0.171875 0.5q0.171875 0.21875 0.53125 0.375q0.21875 0.078125 1.25 0.359375q1.484375 0.390625 2.078125 0.65625q0.59375 0.25 0.921875 0.734375q0.34375 0.484375 0.34375 1.203125q0 0.703125 -0.421875 1.328125q-0.40625 0.609375 -1.1875 0.953125q-0.765625 0.34375 -1.734375 0.34375q-1.625 0 -2.46875 -0.671875q-0.84375 -0.671875 -1.078125 -2.0zm13.0078125 2.484375l0 -8.296875l1.265625 0l0 1.171875q0.90625 -1.359375 2.640625 -1.359375q0.75 0 1.375 0.265625q0.625 0.265625 0.9375 0.703125q0.3125 0.4375 0.4375 1.046875q0.078125 0.390625 0.078125 1.359375l0 5.109375l-1.40625 0l0 -5.046875q0 -0.859375 -0.171875 -1.28125q-0.15625 -0.4375 -0.578125 -0.6875q-0.40625 -0.25 -0.96875 -0.25q-0.90625 0 -1.5625 0.578125q-0.640625 0.5625 -0.640625 2.15625l0 4.53125l-1.40625 0zm14.5703125 -2.671875l1.453125 0.171875q-0.34375 1.28125 -1.28125 1.984375q-0.921875 0.703125 -2.359375 0.703125q-1.828125 0 -2.890625 -1.125q-1.0625 -1.125 -1.0625 -3.140625q0 -2.09375 1.078125 -3.25q1.078125 -1.15625 2.796875 -1.15625q1.65625 0 2.703125 1.140625q1.0625 1.125 1.0625 3.171875q0 0.125 0 0.375l-6.1875 0q0.078125 1.375 0.765625 2.109375q0.703125 0.71875 1.734375 0.71875q0.78125 0 1.328125 -0.40625q0.546875 -0.40625 0.859375 -1.296875zm-4.609375 -2.28125l4.625 0q-0.09375 -1.046875 -0.53125 -1.5625q-0.671875 -0.8125 -1.734375 -0.8125q-0.96875 0 -1.640625 0.65625q-0.65625 0.640625 -0.71875 1.71875zm13.5078125 2.28125l1.453125 0.171875q-0.34375 1.28125 -1.28125 1.984375q-0.921875 0.703125 -2.359375 0.703125q-1.828125 0 -2.890625 -1.125q-1.0625 -1.125 -1.0625 -3.140625q0 -2.09375 1.078125 -3.25q1.078125 -1.15625 2.796875 -1.15625q1.65625 0 2.703125 1.140625q1.0625 1.125 1.0625 3.171875q0 0.125 0 0.375l-6.1875 0q0.078125 1.375 0.765625 2.109375q0.703125 0.71875 1.734375 0.71875q0.78125 0 1.328125 -0.40625q0.546875 -0.40625 0.859375 -1.296875zm-4.609375 -2.28125l4.625 0q-0.09375 -1.046875 -0.53125 -1.5625q-0.671875 -0.8125 -1.734375 -0.8125q-0.96875 0 -1.640625 0.65625q-0.65625 0.640625 -0.71875 1.71875zm13.2109375 4.953125l0 -1.046875q-0.78125 1.234375 -2.3125 1.234375q-1.0 0 -1.828125 -0.546875q-0.828125 -0.546875 -1.296875 -1.53125q-0.453125 -0.984375 -0.453125 -2.25q0 -1.25 0.40625 -2.25q0.421875 -1.015625 1.25 -1.546875q0.828125 -0.546875 1.859375 -0.546875q0.75 0 1.328125 0.3125q0.59375 0.3125 0.953125 0.828125l0 -4.109375l1.40625 0l0 11.453125l-1.3125 0zm-4.4375 -4.140625q0 1.59375 0.671875 2.390625q0.671875 0.78125 1.578125 0.78125q0.921875 0 1.5625 -0.75q0.65625 -0.765625 0.65625 -2.3125q0 -1.703125 -0.65625 -2.5q-0.65625 -0.796875 -1.625 -0.796875q-0.9375 0 -1.5625 0.765625q-0.625 0.765625 -0.625 2.421875zm15.46875 2.875l0.203125 1.25q-0.59375 0.125 -1.0625 0.125q-0.765625 0 -1.1875 -0.234375q-0.421875 -0.25 -0.59375 -0.640625q-0.171875 -0.40625 -0.171875 -1.671875l0 -4.765625l-1.03125 0l0 -1.09375l1.03125 0l0 -2.0625l1.40625 -0.84375l0 2.90625l1.40625 0l0 1.09375l-1.40625 0l0 4.84375q0 0.609375 0.0625 0.78125q0.078125 0.171875 0.25 0.28125q0.171875 0.09375 0.484375 0.09375q0.234375 0 0.609375 -0.0625zm0.8515625 -2.890625q0 -2.296875 1.28125 -3.40625q1.078125 -0.921875 2.609375 -0.921875q1.71875 0 2.796875 1.125q1.09375 1.109375 1.09375 3.09375q0 1.59375 -0.484375 2.515625q-0.484375 0.921875 -1.40625 1.4375q-0.90625 0.5 -2.0 0.5q-1.734375 0 -2.8125 -1.109375q-1.078125 -1.125 -1.078125 -3.234375zm1.453125 0q0 1.59375 0.6875 2.390625q0.703125 0.796875 1.75 0.796875q1.046875 0 1.734375 -0.796875q0.703125 -0.796875 0.703125 -2.4375q0 -1.53125 -0.703125 -2.328125q-0.6875 -0.796875 -1.734375 -0.796875q-1.046875 0 -1.75 0.796875q-0.6875 0.78125 -0.6875 2.375zm13.71875 4.15625l-1.3125 0l0 -11.453125l1.40625 0l0 4.078125q0.890625 -1.109375 2.28125 -1.109375q0.765625 0 1.4375 0.3125q0.6875 0.296875 1.125 0.859375q0.453125 0.5625 0.703125 1.359375q0.25 0.78125 0.25 1.671875q0 2.140625 -1.0625 3.3125q-1.046875 1.15625 -2.53125 1.15625q-1.46875 0 -2.296875 -1.234375l0 1.046875zm-0.015625 -4.21875q0 1.5 0.40625 2.15625q0.65625 1.09375 1.796875 1.09375q0.921875 0 1.59375 -0.796875q0.671875 -0.8125 0.671875 -2.390625q0 -1.625 -0.65625 -2.390625q-0.640625 -0.78125 -1.546875 -0.78125q-0.921875 0 -1.59375 0.796875q-0.671875 0.796875 -0.671875 2.3125zm13.2890625 1.546875l1.453125 0.171875q-0.34375 1.28125 -1.28125 1.984375q-0.921875 0.703125 -2.359375 0.703125q-1.828125 0 -2.890625 -1.125q-1.0625 -1.125 -1.0625 -3.140625q0 -2.09375 1.078125 -3.25q1.078125 -1.15625 2.796875 -1.15625q1.65625 0 2.703125 1.140625q1.0625 1.125 1.0625 3.171875q0 0.125 0 0.375l-6.1875 0q0.078125 1.375 0.765625 2.109375q0.703125 0.71875 1.734375 0.71875q0.78125 0 1.328125 -0.40625q0.546875 -0.40625 0.859375 -1.296875zm-4.609375 -2.28125l4.625 0q-0.09375 -1.046875 -0.53125 -1.5625q-0.671875 -0.8125 -1.734375 -0.8125q-0.96875 0 -1.640625 0.65625q-0.65625 0.640625 -0.71875 1.71875z" fill-rule="nonzero"/><path fill="#000000" d="m808.3792 555.2081l1.390625 0.1875q-0.234375 1.421875 -1.171875 2.234375q-0.921875 0.8125 -2.28125 0.8125q-1.703125 0 -2.75 -1.109375q-1.03125 -1.125 -1.03125 -3.203125q0 -1.34375 0.4375 -2.34375q0.453125 -1.015625 1.359375 -1.515625q0.921875 -0.5 1.984375 -0.5q1.359375 0 2.21875 0.6875q0.859375 0.671875 1.09375 1.9375l-1.359375 0.203125q-0.203125 -0.828125 -0.703125 -1.25q-0.484375 -0.421875 -1.1875 -0.421875q-1.0625 0 -1.734375 0.765625q-0.65625 0.75 -0.65625 2.40625q0 1.671875 0.640625 2.4375q0.640625 0.75 1.671875 0.75q0.828125 0 1.375 -0.5q0.5625 -0.515625 0.703125 -1.578125zm2.59375 3.046875l0 -11.453125l1.40625 0l0 4.109375q0.984375 -1.140625 2.484375 -1.140625q0.921875 0 1.59375 0.359375q0.6875 0.359375 0.96875 1.0q0.296875 0.640625 0.296875 1.859375l0 5.265625l-1.40625 0l0 -5.265625q0 -1.046875 -0.453125 -1.53125q-0.453125 -0.484375 -1.296875 -0.484375q-0.625 0 -1.171875 0.328125q-0.546875 0.328125 -0.78125 0.890625q-0.234375 0.546875 -0.234375 1.515625l0 4.546875l-1.40625 0zm14.3046875 -1.03125q-0.78125 0.671875 -1.5 0.953125q-0.71875 0.265625 -1.546875 0.265625q-1.375 0 -2.109375 -0.671875q-0.734375 -0.671875 -0.734375 -1.703125q0 -0.609375 0.28125 -1.109375q0.28125 -0.515625 0.71875 -0.8125q0.453125 -0.3125 1.015625 -0.46875q0.421875 -0.109375 1.25 -0.203125q1.703125 -0.203125 2.515625 -0.484375q0 -0.296875 0 -0.375q0 -0.859375 -0.390625 -1.203125q-0.546875 -0.484375 -1.609375 -0.484375q-0.984375 0 -1.46875 0.359375q-0.46875 0.34375 -0.6875 1.21875l-1.375 -0.1875q0.1875 -0.875 0.609375 -1.421875q0.4375 -0.546875 1.25 -0.828125q0.8125 -0.296875 1.875 -0.296875q1.0625 0 1.71875 0.25q0.671875 0.25 0.984375 0.625q0.3125 0.375 0.4375 0.953125q0.078125 0.359375 0.078125 1.296875l0 1.875q0 1.96875 0.078125 2.484375q0.09375 0.515625 0.359375 1.0l-1.46875 0q-0.21875 -0.4375 -0.28125 -1.03125zm-0.109375 -3.140625q-0.765625 0.3125 -2.296875 0.53125q-0.875 0.125 -1.234375 0.28125q-0.359375 0.15625 -0.5625 0.46875q-0.1875 0.296875 -0.1875 0.65625q0 0.5625 0.421875 0.9375q0.4375 0.375 1.25 0.375q0.8125 0 1.4375 -0.34375q0.640625 -0.359375 0.9375 -0.984375q0.234375 -0.46875 0.234375 -1.40625l0 -0.515625zm3.6015625 4.171875l0 -8.296875l1.265625 0l0 1.171875q0.90625 -1.359375 2.640625 -1.359375q0.75 0 1.375 0.265625q0.625 0.265625 0.9375 0.703125q0.3125 0.4375 0.4375 1.046875q0.078125 0.390625 0.078125 1.359375l0 5.109375l-1.40625 0l0 -5.046875q0 -0.859375 -0.171875 -1.28125q-0.15625 -0.4375 -0.578125 -0.6875q-0.40625 -0.25 -0.96875 -0.25q-0.90625 0 -1.5625 0.578125q-0.640625 0.5625 -0.640625 2.15625l0 4.53125l-1.40625 0zm8.6328125 0.6875l1.375 0.203125q0.078125 0.640625 0.46875 0.921875q0.53125 0.390625 1.4375 0.390625q0.96875 0 1.5 -0.390625q0.53125 -0.390625 0.71875 -1.09375q0.109375 -0.421875 0.109375 -1.8125q-0.921875 1.09375 -2.296875 1.09375q-1.71875 0 -2.65625 -1.234375q-0.9375 -1.234375 -0.9375 -2.96875q0 -1.1875 0.421875 -2.1875q0.4375 -1.0 1.25 -1.546875q0.828125 -0.546875 1.921875 -0.546875q1.46875 0 2.421875 1.1875l0 -1.0l1.296875 0l0 7.171875q0 1.9375 -0.390625 2.75q-0.390625 0.8125 -1.25 1.28125q-0.859375 0.46875 -2.109375 0.46875q-1.484375 0 -2.40625 -0.671875q-0.90625 -0.671875 -0.875 -2.015625zm1.171875 -4.984375q0 1.625 0.640625 2.375q0.65625 0.75 1.625 0.75q0.96875 0 1.625 -0.734375q0.65625 -0.75 0.65625 -2.34375q0 -1.53125 -0.671875 -2.296875q-0.671875 -0.78125 -1.625 -0.78125q-0.9375 0 -1.59375 0.765625q-0.65625 0.765625 -0.65625 2.265625zm13.6640625 1.625l1.453125 0.171875q-0.34375 1.28125 -1.28125 1.984375q-0.921875 0.703125 -2.359375 0.703125q-1.828125 0 -2.890625 -1.125q-1.0625 -1.125 -1.0625 -3.140625q0 -2.09375 1.078125 -3.25q1.078125 -1.15625 2.796875 -1.15625q1.65625 0 2.703125 1.140625q1.0625 1.125 1.0625 3.171875q0 0.125 0 0.375l-6.1875 0q0.078125 1.375 0.765625 2.109375q0.703125 0.71875 1.734375 0.71875q0.78125 0 1.328125 -0.40625q0.546875 -0.40625 0.859375 -1.296875zm-4.609375 -2.28125l4.625 0q-0.09375 -1.046875 -0.53125 -1.5625q-0.671875 -0.8125 -1.734375 -0.8125q-0.96875 0 -1.640625 0.65625q-0.65625 0.640625 -0.71875 1.71875zm13.2109375 4.953125l0 -1.046875q-0.78125 1.234375 -2.3125 1.234375q-1.0 0 -1.828125 -0.546875q-0.828125 -0.546875 -1.296875 -1.53125q-0.453125 -0.984375 -0.453125 -2.25q0 -1.25 0.40625 -2.25q0.421875 -1.015625 1.25 -1.546875q0.828125 -0.546875 1.859375 -0.546875q0.75 0 1.328125 0.3125q0.59375 0.3125 0.953125 0.828125l0 -4.109375l1.40625 0l0 11.453125l-1.3125 0zm-4.4375 -4.140625q0 1.59375 0.671875 2.390625q0.671875 0.78125 1.578125 0.78125q0.921875 0 1.5625 -0.75q0.65625 -0.765625 0.65625 -2.3125q0 -1.703125 -0.65625 -2.5q-0.65625 -0.796875 -1.625 -0.796875q-0.9375 0 -1.5625 0.765625q-0.625 0.765625 -0.625 2.421875zm15.46875 2.875l0.203125 1.25q-0.59375 0.125 -1.0625 0.125q-0.765625 0 -1.1875 -0.234375q-0.421875 -0.25 -0.59375 -0.640625q-0.171875 -0.40625 -0.171875 -1.671875l0 -4.765625l-1.03125 0l0 -1.09375l1.03125 0l0 -2.0625l1.40625 -0.84375l0 2.90625l1.40625 0l0 1.09375l-1.40625 0l0 4.84375q0 0.609375 0.0625 0.78125q0.078125 0.171875 0.25 0.28125q0.171875 0.09375 0.484375 0.09375q0.234375 0 0.609375 -0.0625zm0.8515625 -2.890625q0 -2.296875 1.28125 -3.40625q1.078125 -0.921875 2.609375 -0.921875q1.71875 0 2.796875 1.125q1.09375 1.109375 1.09375 3.09375q0 1.59375 -0.484375 2.515625q-0.484375 0.921875 -1.40625 1.4375q-0.90625 0.5 -2.0 0.5q-1.734375 0 -2.8125 -1.109375q-1.078125 -1.125 -1.078125 -3.234375zm1.453125 0q0 1.59375 0.6875 2.390625q0.703125 0.796875 1.75 0.796875q1.046875 0 1.734375 -0.796875q0.703125 -0.796875 0.703125 -2.4375q0 -1.53125 -0.703125 -2.328125q-0.6875 -0.796875 -1.734375 -0.796875q-1.046875 0 -1.75 0.796875q-0.6875 0.78125 -0.6875 2.375zm12.421875 7.34375l0 -11.484375l1.28125 0l0 1.078125q0.453125 -0.640625 1.015625 -0.953125q0.578125 -0.3125 1.390625 -0.3125q1.0625 0 1.875 0.546875q0.8125 0.546875 1.21875 1.546875q0.421875 0.984375 0.421875 2.171875q0 1.28125 -0.46875 2.296875q-0.453125 1.015625 -1.328125 1.5625q-0.859375 0.546875 -1.828125 0.546875q-0.703125 0 -1.265625 -0.296875q-0.546875 -0.296875 -0.90625 -0.75l0 4.046875l-1.40625 0zm1.265625 -7.296875q0 1.609375 0.640625 2.375q0.65625 0.765625 1.578125 0.765625q0.9375 0 1.609375 -0.796875q0.671875 -0.796875 0.671875 -2.453125q0 -1.59375 -0.65625 -2.375q-0.65625 -0.796875 -1.5625 -0.796875q-0.890625 0 -1.59375 0.84375q-0.6875 0.84375 -0.6875 2.4375zm13.0390625 3.078125q-0.78125 0.671875 -1.5 0.953125q-0.71875 0.265625 -1.546875 0.265625q-1.375 0 -2.109375 -0.671875q-0.734375 -0.671875 -0.734375 -1.703125q0 -0.609375 0.28125 -1.109375q0.28125 -0.515625 0.71875 -0.8125q0.453125 -0.3125 1.015625 -0.46875q0.421875 -0.109375 1.25 -0.203125q1.703125 -0.203125 2.515625 -0.484375q0 -0.296875 0 -0.375q0 -0.859375 -0.390625 -1.203125q-0.546875 -0.484375 -1.609375 -0.484375q-0.984375 0 -1.46875 0.359375q-0.46875 0.34375 -0.6875 1.21875l-1.375 -0.1875q0.1875 -0.875 0.609375 -1.421875q0.4375 -0.546875 1.25 -0.828125q0.8125 -0.296875 1.875 -0.296875q1.0625 0 1.71875 0.25q0.671875 0.25 0.984375 0.625q0.3125 0.375 0.4375 0.953125q0.078125 0.359375 0.078125 1.296875l0 1.875q0 1.96875 0.078125 2.484375q0.09375 0.515625 0.359375 1.0l-1.46875 0q-0.21875 -0.4375 -0.28125 -1.03125zm-0.109375 -3.140625q-0.765625 0.3125 -2.296875 0.53125q-0.875 0.125 -1.234375 0.28125q-0.359375 0.15625 -0.5625 0.46875q-0.1875 0.296875 -0.1875 0.65625q0 0.5625 0.421875 0.9375q0.4375 0.375 1.25 0.375q0.8125 0 1.4375 -0.34375q0.640625 -0.359375 0.9375 -0.984375q0.234375 -0.46875 0.234375 -1.40625l0 -0.515625zm3.0390625 1.6875l1.390625 -0.21875q0.109375 0.84375 0.640625 1.296875q0.546875 0.4375 1.5 0.4375q0.96875 0 1.4375 -0.390625q0.46875 -0.40625 0.46875 -0.9375q0 -0.46875 -0.40625 -0.75q-0.296875 -0.1875 -1.4375 -0.46875q-1.546875 -0.390625 -2.15625 -0.671875q-0.59375 -0.296875 -0.90625 -0.796875q-0.296875 -0.5 -0.296875 -1.109375q0 -0.5625 0.25 -1.03125q0.25 -0.46875 0.6875 -0.78125q0.328125 -0.25 0.890625 -0.40625q0.578125 -0.171875 1.21875 -0.171875q0.984375 0 1.71875 0.28125q0.734375 0.28125 1.078125 0.765625q0.359375 0.46875 0.5 1.28125l-1.375 0.1875q-0.09375 -0.640625 -0.546875 -1.0q-0.453125 -0.359375 -1.265625 -0.359375q-0.96875 0 -1.390625 0.328125q-0.40625 0.3125 -0.40625 0.734375q0 0.28125 0.171875 0.5q0.171875 0.21875 0.53125 0.375q0.21875 0.078125 1.25 0.359375q1.484375 0.390625 2.078125 0.65625q0.59375 0.25 0.921875 0.734375q0.34375 0.484375 0.34375 1.203125q0 0.703125 -0.421875 1.328125q-0.40625 0.609375 -1.1875 0.953125q-0.765625 0.34375 -1.734375 0.34375q-1.625 0 -2.46875 -0.671875q-0.84375 -0.671875 -1.078125 -2.0zm8.0 0l1.390625 -0.21875q0.109375 0.84375 0.640625 1.296875q0.546875 0.4375 1.5 0.4375q0.96875 0 1.4375 -0.390625q0.46875 -0.40625 0.46875 -0.9375q0 -0.46875 -0.40625 -0.75q-0.296875 -0.1875 -1.4375 -0.46875q-1.546875 -0.390625 -2.15625 -0.671875q-0.59375 -0.296875 -0.90625 -0.796875q-0.296875 -0.5 -0.296875 -1.109375q0 -0.5625 0.25 -1.03125q0.25 -0.46875 0.6875 -0.78125q0.328125 -0.25 0.890625 -0.40625q0.578125 -0.171875 1.21875 -0.171875q0.984375 0 1.71875 0.28125q0.734375 0.28125 1.078125 0.765625q0.359375 0.46875 0.5 1.28125l-1.375 0.1875q-0.09375 -0.640625 -0.546875 -1.0q-0.453125 -0.359375 -1.265625 -0.359375q-0.96875 0 -1.390625 0.328125q-0.40625 0.3125 -0.40625 0.734375q0 0.28125 0.171875 0.5q0.171875 0.21875 0.53125 0.375q0.21875 0.078125 1.25 0.359375q1.484375 0.390625 2.078125 0.65625q0.59375 0.25 0.921875 0.734375q0.34375 0.484375 0.34375 1.203125q0 0.703125 -0.421875 1.328125q-0.40625 0.609375 -1.1875 0.953125q-0.765625 0.34375 -1.734375 0.34375q-1.625 0 -2.46875 -0.671875q-0.84375 -0.671875 -1.078125 -2.0zm12.9765625 2.484375l0 -11.453125l1.40625 0l0 11.453125l-1.40625 0zm3.5859375 -9.84375l0 -1.609375l1.40625 0l0 1.609375l-1.40625 0zm0 9.84375l0 -8.296875l1.40625 0l0 8.296875l-1.40625 0zm3.5546875 0l0 -8.296875l1.265625 0l0 1.171875q0.90625 -1.359375 2.640625 -1.359375q0.75 0 1.375 0.265625q0.625 0.265625 0.9375 0.703125q0.3125 0.4375 0.4375 1.046875q0.078125 0.390625 0.078125 1.359375l0 5.109375l-1.40625 0l0 -5.046875q0 -0.859375 -0.171875 -1.28125q-0.15625 -0.4375 -0.578125 -0.6875q-0.40625 -0.25 -0.96875 -0.25q-0.90625 0 -1.5625 0.578125q-0.640625 0.5625 -0.640625 2.15625l0 4.53125l-1.40625 0zm11.9609375 -1.265625l0.203125 1.25q-0.59375 0.125 -1.0625 0.125q-0.765625 0 -1.1875 -0.234375q-0.421875 -0.25 -0.59375 -0.640625q-0.171875 -0.40625 -0.171875 -1.671875l0 -4.765625l-1.03125 0l0 -1.09375l1.03125 0l0 -2.0625l1.40625 -0.84375l0 2.90625l1.40625 0l0 1.09375l-1.40625 0l0 4.84375q0 0.609375 0.0625 0.78125q0.078125 0.171875 0.25 0.28125q0.171875 0.09375 0.484375 0.09375q0.234375 0 0.609375 -0.0625zm7.0546875 -1.40625l1.453125 0.171875q-0.34375 1.28125 -1.28125 1.984375q-0.921875 0.703125 -2.359375 0.703125q-1.828125 0 -2.890625 -1.125q-1.0625 -1.125 -1.0625 -3.140625q0 -2.09375 1.078125 -3.25q1.078125 -1.15625 2.796875 -1.15625q1.65625 0 2.703125 1.140625q1.0625 1.125 1.0625 3.171875q0 0.125 0 0.375l-6.1875 0q0.078125 1.375 0.765625 2.109375q0.703125 0.71875 1.734375 0.71875q0.78125 0 1.328125 -0.40625q0.546875 -0.40625 0.859375 -1.296875zm-4.609375 -2.28125l4.625 0q-0.09375 -1.046875 -0.53125 -1.5625q-0.671875 -0.8125 -1.734375 -0.8125q-0.96875 0 -1.640625 0.65625q-0.65625 0.640625 -0.71875 1.71875zm7.8203125 4.953125l0 -8.296875l1.265625 0l0 1.25q0.484375 -0.875 0.890625 -1.15625q0.40625 -0.28125 0.90625 -0.28125q0.703125 0 1.4375 0.453125l-0.484375 1.296875q-0.515625 -0.296875 -1.03125 -0.296875q-0.453125 0 -0.828125 0.28125q-0.359375 0.265625 -0.515625 0.765625q-0.234375 0.75 -0.234375 1.640625l0 4.34375l-1.40625 0zm4.78125 -2.484375l1.390625 -0.21875q0.109375 0.84375 0.640625 1.296875q0.546875 0.4375 1.5 0.4375q0.96875 0 1.4375 -0.390625q0.46875 -0.40625 0.46875 -0.9375q0 -0.46875 -0.40625 -0.75q-0.296875 -0.1875 -1.4375 -0.46875q-1.546875 -0.390625 -2.15625 -0.671875q-0.59375 -0.296875 -0.90625 -0.796875q-0.296875 -0.5 -0.296875 -1.109375q0 -0.5625 0.25 -1.03125q0.25 -0.46875 0.6875 -0.78125q0.328125 -0.25 0.890625 -0.40625q0.578125 -0.171875 1.21875 -0.171875q0.984375 0 1.71875 0.28125q0.734375 0.28125 1.078125 0.765625q0.359375 0.46875 0.5 1.28125l-1.375 0.1875q-0.09375 -0.640625 -0.546875 -1.0q-0.453125 -0.359375 -1.265625 -0.359375q-0.96875 0 -1.390625 0.328125q-0.40625 0.3125 -0.40625 0.734375q0 0.28125 0.171875 0.5q0.171875 0.21875 0.53125 0.375q0.21875 0.078125 1.25 0.359375q1.484375 0.390625 2.078125 0.65625q0.59375 0.25 0.921875 0.734375q0.34375 0.484375 0.34375 1.203125q0 0.703125 -0.421875 1.328125q-0.40625 0.609375 -1.1875 0.953125q-0.765625 0.34375 -1.734375 0.34375q-1.625 0 -2.46875 -0.671875q-0.84375 -0.671875 -1.078125 -2.0z" fill-rule="nonzero"/><defs><linearGradient id="p.5" gradientUnits="userSpaceOnUse" gradientTransform="matrix(8.944322346130319 0.0 0.0 8.944322346130319 0.0 0.0)" spreadMethod="pad" x1="40.37649874098631" y1="87.69435195687232" x2="40.376466645375295" y2="96.63867430294506"><stop offset="0.0" stop-color="#fff6db"/><stop offset="1.0" stop-color="#fad25c"/></linearGradient></defs><path fill="url(#p.5)" d="m361.1404 824.36743l0 0c0 -22.09137 17.90863 -40.0 40.0 -40.0l163.71652 0l0 0c10.608704 0 20.782837 4.2142944 28.284302 11.715759c7.501465 7.501465 11.715698 17.675598 11.715698 28.28424l0 0l0 0c0 22.09143 -17.90857 40.0 -40.0 40.0l-163.71652 0c-22.09137 0 -40.0 -17.90857 -40.0 -40.0z" fill-rule="evenodd"/><path stroke="#000000" stroke-width="1.0" stroke-linejoin="round" stroke-linecap="butt" d="m361.1404 824.36743l0 0c0 -22.09137 17.90863 -40.0 40.0 -40.0l163.71652 0l0 0c10.608704 0 20.782837 4.2142944 28.284302 11.715759c7.501465 7.501465 11.715698 17.675598 11.715698 28.28424l0 0l0 0c0 22.09143 -17.90857 40.0 -40.0 40.0l-163.71652 0c-22.09137 0 -40.0 -17.90857 -40.0 -40.0z" fill-rule="evenodd"/><path fill="#000000" d="m409.04294 833.68744l0 -18.125l12.234375 0l0 2.140625l-9.828125 0l0 5.609375l8.5 0l0 2.140625l-8.5 0l0 8.234375l-2.40625 0zm15.080811 -15.578125l0 -2.546875l2.21875 0l0 2.546875l-2.21875 0zm0 15.578125l0 -13.140625l2.21875 0l0 13.140625l-2.21875 0zm5.5646057 0l0 -18.125l2.21875 0l0 18.125l-2.21875 0zm14.658356 -4.234375l2.296875 0.296875q-0.53125 2.015625 -2.015625 3.125q-1.46875 1.109375 -3.75 1.109375q-2.890625 0 -4.578125 -1.765625q-1.6875 -1.78125 -1.6875 -4.984375q0 -3.3125 1.703125 -5.140625q1.71875 -1.84375 4.4375 -1.84375q2.640625 0 4.296875 1.796875q1.671875 1.796875 1.671875 5.046875q0 0.203125 -0.015625 0.59375l-9.78125 0q0.109375 2.171875 1.203125 3.328125q1.109375 1.140625 2.765625 1.140625q1.21875 0 2.078125 -0.640625q0.875 -0.640625 1.375 -2.0625zm-7.3125 -3.59375l7.34375 0q-0.15625 -1.65625 -0.84375 -2.484375q-1.0625 -1.28125 -2.75 -1.28125q-1.546875 0 -2.59375 1.03125q-1.03125 1.015625 -1.15625 2.734375zm11.523804 3.90625l2.203125 -0.34375q0.1875 1.328125 1.03125 2.03125q0.84375 0.703125 2.359375 0.703125q1.546875 0 2.28125 -0.625q0.75 -0.625 0.75 -1.46875q0 -0.75 -0.65625 -1.1875q-0.46875 -0.296875 -2.28125 -0.75q-2.453125 -0.625 -3.40625 -1.078125q-0.9375 -0.453125 -1.421875 -1.25q-0.484375 -0.796875 -0.484375 -1.75q0 -0.890625 0.390625 -1.625q0.40625 -0.75 1.09375 -1.25q0.53125 -0.390625 1.421875 -0.65625q0.890625 -0.265625 1.921875 -0.265625q1.546875 0 2.71875 0.453125q1.171875 0.4375 1.71875 1.203125q0.5625 0.765625 0.765625 2.03125l-2.171875 0.296875q-0.140625 -1.015625 -0.859375 -1.578125q-0.71875 -0.5625 -2.015625 -0.5625q-1.53125 0 -2.1875 0.5q-0.65625 0.5 -0.65625 1.1875q0 0.4375 0.28125 0.78125q0.265625 0.359375 0.84375 0.59375q0.34375 0.125 1.96875 0.5625q2.359375 0.640625 3.296875 1.046875q0.9375 0.390625 1.46875 1.15625q0.53125 0.765625 0.53125 1.90625q0 1.109375 -0.65625 2.09375q-0.640625 0.984375 -1.875 1.53125q-1.21875 0.53125 -2.765625 0.53125q-2.5625 0 -3.90625 -1.0625q-1.328125 -1.0625 -1.703125 -3.15625zm29.20102 3.921875l0 -1.921875q-1.53125 2.21875 -4.171875 2.21875q-1.15625 0 -2.171875 -0.4375q-1.0 -0.453125 -1.5 -1.125q-0.484375 -0.671875 -0.6875 -1.65625q-0.125 -0.65625 -0.125 -2.078125l0 -8.140625l2.21875 0l0 7.296875q0 1.734375 0.140625 2.34375q0.203125 0.875 0.875 1.375q0.6875 0.5 1.6875 0.5q1.015625 0 1.890625 -0.5q0.875 -0.515625 1.234375 -1.40625q0.375 -0.890625 0.375 -2.5625l0 -7.046875l2.21875 0l0 13.140625l-1.984375 0zm5.4769287 5.03125l0 -18.171875l2.03125 0l0 1.71875q0.71875 -1.0 1.609375 -1.5q0.90625 -0.515625 2.1875 -0.515625q1.6875 0 2.96875 0.875q1.296875 0.859375 1.953125 2.4375q0.65625 1.578125 0.65625 3.453125q0 2.015625 -0.734375 3.640625q-0.71875 1.609375 -2.09375 2.46875q-1.375 0.859375 -2.90625 0.859375q-1.109375 0 -2.0 -0.46875q-0.875 -0.46875 -1.453125 -1.1875l0 6.390625l-2.21875 0zm2.015625 -11.53125q0 2.546875 1.015625 3.765625q1.03125 1.203125 2.5 1.203125q1.484375 0 2.53125 -1.25q1.0625 -1.265625 1.0625 -3.890625q0 -2.515625 -1.03125 -3.765625q-1.03125 -1.25 -2.46875 -1.25q-1.421875 0 -2.515625 1.328125q-1.09375 1.328125 -1.09375 3.859375zm20.586304 6.5l0 -1.65625q-1.25 1.953125 -3.671875 1.953125q-1.5625 0 -2.890625 -0.859375q-1.3125 -0.875 -2.046875 -2.421875q-0.71875 -1.546875 -0.71875 -3.5625q0 -1.96875 0.65625 -3.5625q0.65625 -1.609375 1.96875 -2.46875q1.3125 -0.859375 2.9375 -0.859375q1.1875 0 2.109375 0.515625q0.9375 0.5 1.515625 1.296875l0 -6.5l2.203125 0l0 18.125l-2.0625 0zm-7.03125 -6.546875q0 2.515625 1.0625 3.765625q1.0625 1.25 2.515625 1.25q1.453125 0 2.46875 -1.1875q1.03125 -1.203125 1.03125 -3.65625q0 -2.6875 -1.046875 -3.953125q-1.03125 -1.265625 -2.5625 -1.265625q-1.484375 0 -2.484375 1.21875q-0.984375 1.203125 -0.984375 3.828125zm21.164429 4.921875q-1.234375 1.0625 -2.375 1.5q-1.140625 0.421875 -2.453125 0.421875q-2.171875 0 -3.328125 -1.046875q-1.15625 -1.0625 -1.15625 -2.71875q0 -0.953125 0.4375 -1.75q0.4375 -0.796875 1.140625 -1.28125q0.71875 -0.484375 1.609375 -0.734375q0.65625 -0.171875 1.96875 -0.328125q2.703125 -0.328125 3.96875 -0.765625q0.015625 -0.46875 0.015625 -0.59375q0 -1.359375 -0.625 -1.90625q-0.859375 -0.765625 -2.53125 -0.765625q-1.578125 0 -2.328125 0.5625q-0.75 0.546875 -1.109375 1.9375l-2.171875 -0.296875q0.296875 -1.390625 0.96875 -2.25q0.6875 -0.859375 1.96875 -1.328125q1.296875 -0.46875 2.984375 -0.46875q1.6875 0 2.734375 0.40625q1.046875 0.390625 1.546875 1.0q0.5 0.59375 0.6875 1.5q0.125 0.578125 0.125 2.0625l0 2.96875q0 3.09375 0.140625 3.921875q0.140625 0.828125 0.5625 1.578125l-2.328125 0q-0.34375 -0.6875 -0.453125 -1.625zm-0.1875 -4.96875q-1.203125 0.5 -3.625 0.84375q-1.375 0.203125 -1.953125 0.453125q-0.5625 0.234375 -0.875 0.71875q-0.296875 0.46875 -0.296875 1.046875q0 0.890625 0.671875 1.484375q0.671875 0.59375 1.96875 0.59375q1.28125 0 2.28125 -0.5625q1.0 -0.5625 1.484375 -1.53125q0.34375 -0.75 0.34375 -2.234375l0 -0.8125zm10.570679 4.609375l0.3125 1.953125q-0.9375 0.203125 -1.671875 0.203125q-1.21875 0 -1.890625 -0.375q-0.65625 -0.390625 -0.9375 -1.015625q-0.265625 -0.625 -0.265625 -2.625l0 -7.5625l-1.640625 0l0 -1.734375l1.640625 0l0 -3.25l2.21875 -1.328125l0 4.578125l2.234375 0l0 1.734375l-2.234375 0l0 7.6875q0 0.953125 0.109375 1.234375q0.125 0.265625 0.390625 0.421875q0.265625 0.15625 0.75 0.15625q0.375 0 0.984375 -0.078125zm11.161987 -2.25l2.296875 0.296875q-0.53125 2.015625 -2.015625 3.125q-1.46875 1.109375 -3.75 1.109375q-2.890625 0 -4.578125 -1.765625q-1.6875 -1.78125 -1.6875 -4.984375q0 -3.3125 1.703125 -5.140625q1.71875 -1.84375 4.4375 -1.84375q2.640625 0 4.296875 1.796875q1.671875 1.796875 1.671875 5.046875q0 0.203125 -0.015625 0.59375l-9.78125 0q0.109375 2.171875 1.203125 3.328125q1.109375 1.140625 2.765625 1.140625q1.21875 0 2.078125 -0.640625q0.875 -0.640625 1.375 -2.0625zm-7.3125 -3.59375l7.34375 0q-0.15625 -1.65625 -0.84375 -2.484375q-1.0625 -1.28125 -2.75 -1.28125q-1.546875 0 -2.59375 1.03125q-1.03125 1.015625 -1.15625 2.734375zm20.930054 7.828125l0 -1.65625q-1.25 1.953125 -3.671875 1.953125q-1.5625 0 -2.890625 -0.859375q-1.3125 -0.875 -2.046875 -2.421875q-0.71875 -1.546875 -0.71875 -3.5625q0 -1.96875 0.65625 -3.5625q0.65625 -1.609375 1.96875 -2.46875q1.3125 -0.859375 2.9375 -0.859375q1.1875 0 2.109375 0.515625q0.9375 0.5 1.515625 1.296875l0 -6.5l2.203125 0l0 18.125l-2.0625 0zm-7.03125 -6.546875q0 2.515625 1.0625 3.765625q1.0625 1.25 2.515625 1.25q1.453125 0 2.46875 -1.1875q1.03125 -1.203125 1.03125 -3.65625q0 -2.6875 -1.046875 -3.953125q-1.03125 -1.265625 -2.5625 -1.265625q-1.484375 0 -2.484375 1.21875q-0.984375 1.203125 -0.984375 3.828125z" fill-rule="nonzero"/><defs><linearGradient id="p.6" gradientUnits="userSpaceOnUse" gradientTransform="matrix(8.9443200535869 0.0 0.0 8.9443200535869 0.0 0.0)" spreadMethod="pad" x1="3.7051916466491392" y1="51.97646653044943" x2="3.705159264461869" y2="60.92078658397771"><stop offset="0.0" stop-color="#fff6db"/><stop offset="1.0" stop-color="#fad25c"/></linearGradient></defs><path fill="url(#p.6)" d="m33.14042 504.89502l0 0c0 -22.0914 17.908611 -40.0 40.0 -40.0l163.71652 0l0 0c10.608673 0 20.782822 4.214264 28.284286 11.715729c7.5014343 7.5014343 11.715729 17.675598 11.715729 28.284271l0 0l0 0c0 22.09137 -17.90863 40.0 -40.000015 40.0l-163.71652 0c-22.091389 0 -40.0 -17.90863 -40.0 -40.0z" fill-rule="evenodd"/><path stroke="#000000" stroke-width="1.0" stroke-linejoin="round" stroke-linecap="butt" d="m33.14042 504.89502l0 0c0 -22.0914 17.908611 -40.0 40.0 -40.0l163.71652 0l0 0c10.608673 0 20.782822 4.214264 28.284286 11.715729c7.5014343 7.5014343 11.715729 17.675598 11.715729 28.284271l0 0l0 0c0 22.09137 -17.90863 40.0 -40.000015 40.0l-163.71652 0c-22.091389 0 -40.0 -17.90863 -40.0 -40.0z" fill-rule="evenodd"/><path fill="#000000" d="m118.24118 515.3088l2.15625 0.3125q0.140625 1.0 0.765625 1.46875q0.828125 0.609375 2.25 0.609375q1.546875 0 2.390625 -0.625q0.84375 -0.609375 1.140625 -1.71875q0.171875 -0.6875 0.15625 -2.859375q-1.453125 1.71875 -3.625 1.71875q-2.71875 0 -4.203125 -1.953125q-1.484375 -1.953125 -1.484375 -4.6875q0 -1.875 0.671875 -3.46875q0.6875 -1.59375 1.984375 -2.453125q1.296875 -0.875 3.03125 -0.875q2.328125 0 3.84375 1.890625l0 -1.59375l2.046875 0l0 11.359375q0 3.0625 -0.625 4.34375q-0.625 1.28125 -1.984375 2.015625q-1.34375 0.75 -3.328125 0.75q-2.34375 0 -3.796875 -1.0625q-1.4375 -1.046875 -1.390625 -3.171875zm1.84375 -7.890625q0 2.578125 1.015625 3.765625q1.03125 1.1875 2.578125 1.1875q1.53125 0 2.5625 -1.171875q1.046875 -1.1875 1.046875 -3.71875q0 -2.40625 -1.078125 -3.625q-1.0625 -1.234375 -2.5625 -1.234375q-1.484375 0 -2.53125 1.21875q-1.03125 1.203125 -1.03125 3.578125zm12.664429 -8.78125l0 -2.546875l2.21875 0l0 2.546875l-2.21875 0zm0 15.578125l0 -13.140625l2.21875 0l0 13.140625l-2.21875 0zm10.470856 -1.984375l0.3125 1.953125q-0.9375 0.203125 -1.671875 0.203125q-1.21875 0 -1.890625 -0.375q-0.65625 -0.390625 -0.9375 -1.015625q-0.265625 -0.625 -0.265625 -2.625l0 -7.5625l-1.640625 0l0 -1.734375l1.640625 0l0 -3.25l2.21875 -1.328125l0 4.578125l2.234375 0l0 1.734375l-2.234375 0l0 7.6875q0 0.953125 0.109375 1.234375q0.125 0.265625 0.390625 0.421875q0.265625 0.15625 0.75 0.15625q0.375 0 0.984375 -0.078125zm17.77707 0.359375q-1.234375 1.0625 -2.375 1.5q-1.140625 0.421875 -2.453125 0.421875q-2.171875 0 -3.328125 -1.046875q-1.15625 -1.0625 -1.15625 -2.71875q0 -0.953125 0.4375 -1.75q0.4375 -0.796875 1.140625 -1.28125q0.71875 -0.484375 1.609375 -0.734375q0.65625 -0.171875 1.96875 -0.328125q2.703125 -0.328125 3.96875 -0.765625q0.015625 -0.46875 0.015625 -0.59375q0 -1.359375 -0.625 -1.90625q-0.859375 -0.765625 -2.53125 -0.765625q-1.578125 0 -2.328125 0.5625q-0.75 0.546875 -1.109375 1.9375l-2.171875 -0.296875q0.296875 -1.390625 0.96875 -2.25q0.6875 -0.859375 1.96875 -1.328125q1.296875 -0.46875 2.984375 -0.46875q1.6875 0 2.734375 0.40625q1.046875 0.390625 1.546875 1.0q0.5 0.59375 0.6875 1.5q0.125 0.578125 0.125 2.0625l0 2.96875q0 3.09375 0.140625 3.921875q0.140625 0.828125 0.5625 1.578125l-2.328125 0q-0.34375 -0.6875 -0.453125 -1.625zm-0.1875 -4.96875q-1.203125 0.5 -3.625 0.84375q-1.375 0.203125 -1.953125 0.453125q-0.5625 0.234375 -0.875 0.71875q-0.296875 0.46875 -0.296875 1.046875q0 0.890625 0.671875 1.484375q0.671875 0.59375 1.96875 0.59375q1.28125 0 2.28125 -0.5625q1.0 -0.5625 1.484375 -1.53125q0.34375 -0.75 0.34375 -2.234375l0 -0.8125zm14.226929 6.59375l0 -1.65625q-1.25 1.953125 -3.671875 1.953125q-1.5625 0 -2.890625 -0.859375q-1.3125 -0.875 -2.046875 -2.421875q-0.71875 -1.546875 -0.71875 -3.5625q0 -1.96875 0.65625 -3.5625q0.65625 -1.609375 1.96875 -2.46875q1.3125 -0.859375 2.9375 -0.859375q1.1875 0 2.109375 0.515625q0.9375 0.5 1.515625 1.296875l0 -6.5l2.203125 0l0 18.125l-2.0625 0zm-7.03125 -6.546875q0 2.515625 1.0625 3.765625q1.0625 1.25 2.515625 1.25q1.453125 0 2.46875 -1.1875q1.03125 -1.203125 1.03125 -3.65625q0 -2.6875 -1.046875 -3.953125q-1.03125 -1.265625 -2.5625 -1.265625q-1.484375 0 -2.484375 1.21875q-0.984375 1.203125 -0.984375 3.828125zm21.117554 6.546875l0 -1.65625q-1.25 1.953125 -3.671875 1.953125q-1.5625 0 -2.890625 -0.859375q-1.3125 -0.875 -2.046875 -2.421875q-0.71875 -1.546875 -0.71875 -3.5625q0 -1.96875 0.65625 -3.5625q0.65625 -1.609375 1.96875 -2.46875q1.3125 -0.859375 2.9375 -0.859375q1.1875 0 2.109375 0.515625q0.9375 0.5 1.515625 1.296875l0 -6.5l2.203125 0l0 18.125l-2.0625 0zm-7.03125 -6.546875q0 2.515625 1.0625 3.765625q1.0625 1.25 2.515625 1.25q1.453125 0 2.46875 -1.1875q1.03125 -1.203125 1.03125 -3.65625q0 -2.6875 -1.046875 -3.953125q-1.03125 -1.265625 -2.5625 -1.265625q-1.484375 0 -2.484375 1.21875q-0.984375 1.203125 -0.984375 3.828125z" fill-rule="nonzero"/><path fill="#000000" fill-opacity="0.0" d="m339.99475 185.37534l338.01575 0" fill-rule="evenodd"/><path stroke="#000000" stroke-width="4.0" stroke-linejoin="round" stroke-linecap="butt" d="m339.99475 185.37534l324.30743 0" fill-rule="evenodd"/><path fill="#000000" stroke="#000000" stroke-width="4.0" stroke-linecap="butt" d="m664.3021 185.37534l-4.498291 4.4983215l12.35907 -4.4983215l-12.35907 -4.498337z" fill-rule="evenodd"/><path fill="#000000" fill-opacity="0.0" d="m1046.9961 183.35957l342.99207 0" fill-rule="evenodd"/><path stroke="#000000" stroke-width="4.0" stroke-linejoin="round" stroke-linecap="butt" d="m1046.9961 183.35957l329.2838 0" fill-rule="evenodd"/><path fill="#000000" stroke="#000000" stroke-width="4.0" stroke-linecap="butt" d="m1376.2798 183.35957l-4.498291 4.498337l12.359131 -4.498337l-12.359131 -4.4983215z" fill-rule="evenodd"/><path fill="#000000" fill-opacity="0.0" d="m861.81104 246.01312l0 158.36221" fill-rule="evenodd"/><path stroke="#000000" stroke-width="4.0" stroke-linejoin="round" stroke-linecap="butt" d="m861.81104 246.01312l0 144.65387" fill-rule="evenodd"/><path fill="#000000" stroke="#000000" stroke-width="4.0" stroke-linecap="butt" d="m861.81104 390.667l-4.498352 -4.498352l4.498352 12.35907l4.498352 -12.35907z" fill-rule="evenodd"/><path fill="#000000" fill-opacity="0.0" d="m850.7979 606.00525l-217.07086 217.07086" fill-rule="evenodd"/><path stroke="#000000" stroke-width="4.0" stroke-linejoin="round" stroke-linecap="butt" d="m850.7979 606.00525l-207.37762 207.37762" fill-rule="evenodd"/><path fill="#000000" stroke="#000000" stroke-width="4.0" stroke-linecap="butt" d="m643.4203 813.3829l0 -6.3616333l-5.5583496 11.919983l11.919983 -5.5583496z" fill-rule="evenodd"/><path fill="#000000" fill-opacity="0.0" d="m341.7979 818.00525l-177.98427 -252.0" fill-rule="evenodd"/><path stroke="#000000" stroke-width="4.0" stroke-linejoin="round" stroke-linecap="butt" d="m341.7979 818.00525l-170.07587 -240.80286" fill-rule="evenodd"/><path fill="#000000" stroke="#000000" stroke-width="4.0" stroke-linecap="butt" d="m171.72205 577.2024l6.269394 1.0791626l-10.804291 -7.499878l3.4557037 12.6901245z" fill-rule="evenodd"/><path fill="#000000" fill-opacity="0.0" d="m155.80577 448.36746l0 -203.37009" fill-rule="evenodd"/><path stroke="#000000" stroke-width="4.0" stroke-linejoin="round" stroke-linecap="butt" d="m155.80577 448.36746l0 -189.66174" fill-rule="evenodd"/><path fill="#000000" stroke="#000000" stroke-width="4.0" stroke-linecap="butt" d="m155.80577 258.70572l4.498337 4.4983215l-4.498337 -12.359055l-4.498337 12.359055z" fill-rule="evenodd"/><path fill="#000000" fill-opacity="0.0" d="m872.7979 289.00525l100.06299 0l0 48.472443l-100.06299 0z" fill-rule="evenodd"/><path stroke="#ff0000" stroke-width="2.0" stroke-linejoin="round" stroke-linecap="butt" d="m872.7979 289.00525l100.06299 0l0 48.472443l-100.06299 0z" fill-rule="evenodd"/><path fill="#ff0000" d="m898.597 321.04526l0 -17.1875l11.78125 0l0 2.90625l-8.3125 0l0 4.078125l7.171875 0l0 2.90625l-7.171875 0l0 7.296875l-3.46875 0zm28.804688 0l-3.765625 0l-1.5 -3.90625l-6.875 0l-1.40625 3.90625l-3.6875 0l6.6875 -17.1875l3.671875 0l6.875 17.1875zm-6.375 -6.796875l-2.375 -6.375l-2.3125 6.375l4.6875 0zm8.113281 6.796875l0 -17.1875l3.46875 0l0 17.1875l-3.46875 0zm6.8710938 0l0 -17.046875l3.46875 0l0 14.15625l8.625 0l0 2.890625l-12.09375 0z" fill-rule="nonzero"/><path fill="#000000" fill-opacity="0.0" d="m1165.4685 122.53281l100.06299 0l0 48.472443l-100.06299 0z" fill-rule="evenodd"/><path stroke="#6aa84f" stroke-width="2.0" stroke-linejoin="round" stroke-linecap="butt" d="m1165.4685 122.53281l100.06299 0l0 48.472443l-100.06299 0z" fill-rule="evenodd"/><path fill="#6aa84f" d="m1185.4629 154.57281l0 -17.1875l5.5625 0q3.171875 0 4.125 0.265625q1.484375 0.390625 2.46875 1.6875q1.0 1.28125 1.0 3.34375q0 1.578125 -0.578125 2.65625q-0.5625 1.078125 -1.453125 1.703125q-0.890625 0.609375 -1.796875 0.796875q-1.25 0.25 -3.59375 0.25l-2.265625 0l0 6.484375l-3.46875 0zm3.46875 -14.28125l0 4.875l1.890625 0q2.0625 0 2.75 -0.265625q0.6875 -0.265625 1.078125 -0.84375q0.390625 -0.578125 0.390625 -1.328125q0 -0.9375 -0.546875 -1.546875q-0.546875 -0.609375 -1.390625 -0.765625q-0.625 -0.125 -2.5 -0.125l-1.671875 0zm26.242188 14.28125l-3.765625 0l-1.5 -3.90625l-6.875 0l-1.40625 3.90625l-3.6875 0l6.6875 -17.1875l3.671875 0l6.875 17.1875zm-6.375 -6.796875l-2.375 -6.375l-2.3125 6.375l4.6875 0zm7.3476562 1.203125l3.375 -0.328125q0.296875 1.703125 1.21875 2.5q0.9375 0.796875 2.53125 0.796875q1.671875 0 2.515625 -0.703125q0.859375 -0.71875 0.859375 -1.671875q0 -0.609375 -0.359375 -1.03125q-0.359375 -0.421875 -1.25 -0.75q-0.609375 -0.203125 -2.78125 -0.75q-2.78125 -0.6875 -3.90625 -1.6875q-1.59375 -1.421875 -1.59375 -3.46875q0 -1.3125 0.75 -2.453125q0.75 -1.140625 2.140625 -1.734375q1.40625 -0.59375 3.390625 -0.59375q3.234375 0 4.859375 1.421875q1.640625 1.40625 1.71875 3.78125l-3.46875 0.140625q-0.21875 -1.3125 -0.953125 -1.890625q-0.734375 -0.59375 -2.203125 -0.59375q-1.5 0 -2.359375 0.625q-0.546875 0.40625 -0.546875 1.0625q0 0.609375 0.515625 1.046875q0.65625 0.546875 3.1875 1.15625q2.53125 0.59375 3.734375 1.234375q1.21875 0.640625 1.90625 1.75q0.6875 1.09375 0.6875 2.734375q0 1.46875 -0.828125 2.765625q-0.8125 1.28125 -2.3125 1.921875q-1.5 0.625 -3.75 0.625q-3.25 0 -5.0 -1.5q-1.75 -1.515625 -2.078125 -4.40625zm16.007812 0l3.375 -0.328125q0.296875 1.703125 1.21875 2.5q0.9375 0.796875 2.53125 0.796875q1.671875 0 2.515625 -0.703125q0.859375 -0.71875 0.859375 -1.671875q0 -0.609375 -0.359375 -1.03125q-0.359375 -0.421875 -1.25 -0.75q-0.609375 -0.203125 -2.78125 -0.75q-2.78125 -0.6875 -3.90625 -1.6875q-1.59375 -1.421875 -1.59375 -3.46875q0 -1.3125 0.75 -2.453125q0.75 -1.140625 2.140625 -1.734375q1.40625 -0.59375 3.390625 -0.59375q3.234375 0 4.859375 1.421875q1.640625 1.40625 1.71875 3.78125l-3.46875 0.140625q-0.21875 -1.3125 -0.953125 -1.890625q-0.734375 -0.59375 -2.203125 -0.59375q-1.5 0 -2.359375 0.625q-0.546875 0.40625 -0.546875 1.0625q0 0.609375 0.515625 1.046875q0.65625 0.546875 3.1875 1.15625q2.53125 0.59375 3.734375 1.234375q1.21875 0.640625 1.90625 1.75q0.6875 1.09375 0.6875 2.734375q0 1.46875 -0.828125 2.765625q-0.8125 1.28125 -2.3125 1.921875q-1.5 0.625 -3.75 0.625q-3.25 0 -5.0 -1.5q-1.75 -1.515625 -2.078125 -4.40625z" fill-rule="nonzero"/><path fill="#000000" fill-opacity="0.0" d="m488.64566 8.173228l746.70874 0l0 74.33071l-746.70874 0z" fill-rule="evenodd"/><path fill="#000000" d="m595.9512 33.58385q-4.859375 0 -7.421875 3.015625q-2.5625 3.015625 -2.5625 8.359375q0 2.546875 0.609375 4.65625q0.625 2.109375 1.828125 3.609375q1.203125 1.484375 2.984375 2.328125q1.796875 0.828125 4.1875 0.828125q1.5 0 2.578125 -0.109375q1.09375 -0.109375 1.734375 -0.296875l0 -11.28125l5.71875 0l0 15.09375q-1.1875 0.453125 -4.0 1.0q-2.8125 0.546875 -6.484375 0.546875q-3.390625 0 -6.203125 -1.09375q-2.8125 -1.09375 -4.78125 -3.171875q-1.96875 -2.09375 -3.0625 -5.125q-1.078125 -3.03125 -1.078125 -6.984375q0 -3.9375 1.1875 -6.96875q1.203125 -3.046875 3.28125 -5.15625q2.09375 -2.109375 4.90625 -3.1875q2.8125 -1.09375 5.984375 -1.09375q2.171875 0 3.875 0.296875q1.703125 0.296875 2.921875 0.65625q1.21875 0.359375 2.015625 0.78125q0.796875 0.40625 1.109375 0.578125l-1.71875 4.671875q-1.359375 -0.8125 -3.375 -1.375q-2.015625 -0.578125 -4.234375 -0.578125zm21.521606 27.109375l-5.484375 0l0 -23.703125l5.484375 0l0 23.703125zm0.59375 -30.640625q0 1.546875 -1.0 2.453125q-1.0 0.90625 -2.359375 0.90625q-1.40625 0 -2.40625 -0.90625q-0.984375 -0.90625 -0.984375 -2.453125q0 -1.59375 0.984375 -2.5q1.0 -0.90625 2.40625 -0.90625q1.359375 0 2.359375 0.90625q1.0 0.90625 1.0 2.5zm6.119995 0.671875l5.484375 -0.90625l0 7.171875l8.4375 0l0 4.578125l-8.4375 0l0 9.65625q0 2.84375 0.90625 4.078125q0.90625 1.21875 3.078125 1.21875q1.5 0 2.65625 -0.3125q1.15625 -0.328125 1.828125 -0.59375l0.90625 4.359375q-0.9375 0.40625 -2.484375 0.828125q-1.546875 0.4375 -3.625 0.4375q-2.546875 0 -4.25 -0.671875q-1.6875 -0.6875 -2.6875 -1.984375q-1.0 -1.296875 -1.40625 -3.125q-0.40625 -1.84375 -0.40625 -4.1875l0 -20.546875zm28.649231 14.6875l8.0625 0l0 -8.875l4.90625 0l0 8.875l8.0625 0l0 4.625l-8.0625 0l0 8.890625l-4.90625 0l0 -8.890625l-8.0625 0l0 -4.625zm53.167236 3.546875q0 -3.671875 -1.65625 -5.703125q-1.65625 -2.046875 -5.328125 -2.046875q-0.765625 0 -1.609375 0.0625q-0.828125 0.0625 -1.65625 0.296875l0 13.546875q0.734375 0.5 1.9375 0.9375q1.203125 0.421875 2.5625 0.421875q2.984375 0 4.359375 -2.03125q1.390625 -2.046875 1.390625 -5.484375zm5.625 -0.09375q0 2.71875 -0.703125 4.984375q-0.703125 2.265625 -2.015625 3.90625q-1.3125 1.625 -3.296875 2.53125q-1.96875 0.90625 -4.453125 0.90625q-1.6875 0 -3.09375 -0.40625q-1.40625 -0.40625 -2.3125 -0.90625l0 9.203121l-5.484375 0l0 -31.328121q1.6875 -0.453125 4.125 -0.859375q2.453125 -0.40625 5.171875 -0.40625q2.8125 0 5.03125 0.859375q2.21875 0.859375 3.78125 2.46875q1.5625 1.609375 2.40625 3.90625q0.84375 2.28125 0.84375 5.140625zm19.171814 -6.9375q-0.6875 -0.234375 -1.890625 -0.46875q-1.1875 -0.25 -2.78125 -0.25q-0.90625 0 -1.921875 0.1875q-1.015625 0.171875 -1.4375 0.296875l0 19.0l-5.484375 0l0 -22.578125q1.59375 -0.578125 3.96875 -1.09375q2.390625 -0.53125 5.28125 -0.53125q0.546875 0 1.265625 0.078125q0.734375 0.0625 1.453125 0.171875q0.734375 0.109375 1.40625 0.265625q0.6875 0.15625 1.09375 0.296875l-0.953125 4.625zm3.439087 7.03125q0 -3.140625 0.921875 -5.484375q0.9375 -2.359375 2.46875 -3.921875q1.546875 -1.5625 3.546875 -2.359375q2.0 -0.796875 4.078186 -0.796875q4.890625 0 7.640625 3.046875q2.75 3.03125 2.75 9.0625q0 0.453125 -0.03125 1.015625q-0.015625 0.5625 -0.0625 1.015625l-15.640686 0q0.21875 2.859375 2.015625 4.421875q1.796875 1.5625 5.187561 1.5625q2.0 0 3.65625 -0.359375q1.65625 -0.359375 2.59375 -0.765625l0.734375 4.484375q-0.453125 0.21875 -1.25 0.46875q-0.796875 0.25 -1.8125 0.453125q-1.015625 0.203125 -2.203125 0.34375q-1.171875 0.140625 -2.390625 0.140625q-3.140686 0 -5.453186 -0.921875q-2.296875 -0.9375 -3.796875 -2.59375q-1.5 -1.65625 -2.234375 -3.890625q-0.71875 -2.25 -0.71875 -4.921875zm15.906311 -2.453125q0 -1.140625 -0.3125 -2.15625q-0.3125 -1.015625 -0.921875 -1.765625q-0.609375 -0.75 -1.5 -1.171875q-0.890625 -0.4375 -2.109375 -0.4375q-1.265686 0 -2.218811 0.484375q-0.953125 0.46875 -1.609375 1.25q-0.65625 0.765625 -1.03125 1.765625q-0.359375 0.984375 -0.484375 2.03125l10.187561 0zm8.851074 -1.265625l12.1875 0l0 5.03125l-12.1875 0l0 -5.03125zm15.403381 3.625q0 -2.625 0.8125 -4.90625q0.828125 -2.296875 2.34375 -3.96875q1.515625 -1.6875 3.6875 -2.640625q2.1875 -0.953125 4.90625 -0.953125q3.34375 0 6.34375 1.21875l-1.1875 4.5q-0.953125 -0.421875 -2.15625 -0.6875q-1.1875 -0.265625 -2.546875 -0.265625q-3.21875 0 -4.90625 2.015625q-1.671875 2.015625 -1.671875 5.6875q0 3.53125 1.578125 5.59375q1.59375 2.0625 5.359375 2.0625q1.40625 0 2.765625 -0.265625q1.359375 -0.28125 2.359375 -0.6875l0.765625 4.53125q-0.90625 0.453125 -2.75 0.8125q-1.828125 0.375 -3.78125 0.375q-3.03125 0 -5.28125 -0.921875q-2.234375 -0.9375 -3.71875 -2.59375q-1.46875 -1.65625 -2.203125 -3.9375q-0.71875 -2.296875 -0.71875 -4.96875zm43.661865 -0.046875q0 2.8125 -0.828125 5.125q-0.8125 2.3125 -2.3125 3.953125q-1.484375 1.625 -3.59375 2.53125q-2.109375 0.90625 -4.65625 0.90625q-2.53125 0 -4.625 -0.90625q-2.078125 -0.90625 -3.578125 -2.53125q-1.484375 -1.640625 -2.328125 -3.953125q-0.84375 -2.3125 -0.84375 -5.125q0 -2.8125 0.84375 -5.09375q0.84375 -2.296875 2.359375 -3.921875q1.515625 -1.640625 3.59375 -2.515625q2.09375 -0.890625 4.578125 -0.890625q2.5 0 4.609375 0.890625q2.109375 0.875 3.59375 2.515625q1.5 1.625 2.34375 3.921875q0.84375 2.28125 0.84375 5.09375zm-5.625 0q0 -3.53125 -1.53125 -5.59375q-1.515625 -2.0625 -4.234375 -2.0625q-2.71875 0 -4.234375 2.0625q-1.515625 2.0625 -1.515625 5.59375q0 3.578125 1.515625 5.671875q1.515625 2.078125 4.234375 2.078125q2.71875 0 4.234375 -2.078125q1.53125 -2.09375 1.53125 -5.671875zm24.793701 -0.59375q0 -3.71875 -0.9375 -5.359375q-0.921875 -1.65625 -3.46875 -1.65625q-0.90625 0 -2.0 0.140625q-1.078125 0.125 -1.625 0.21875l0 19.125l-5.484375 0l0 -22.9375q1.59375 -0.453125 4.15625 -0.859375q2.5625 -0.40625 5.40625 -0.40625q2.453125 0 4.015625 0.640625q1.5625 0.625 2.609375 1.671875q0.5 -0.359375 1.265625 -0.765625q0.78125 -0.421875 1.71875 -0.75q0.953125 -0.34375 2.015625 -0.5625q1.078125 -0.234375 2.15625 -0.234375q2.765625 0 4.5625 0.796875q1.796875 0.78125 2.8125 2.21875q1.015625 1.421875 1.390625 3.4375q0.390625 2.015625 0.390625 4.421875l0 13.328125l-5.484375 0l0 -12.46875q0 -3.71875 -0.90625 -5.359375q-0.90625 -1.65625 -3.484375 -1.65625q-1.3125 0 -2.5 0.4375q-1.171875 0.421875 -1.765625 0.828125q0.359375 1.125 0.5 2.40625q0.140625 1.265625 0.140625 2.71875l0 13.09375l-5.484375 0l0 -12.46875zm39.208862 0q0 -3.71875 -0.9375 -5.359375q-0.921875 -1.65625 -3.46875 -1.65625q-0.90625 0 -2.0 0.140625q-1.078125 0.125 -1.625 0.21875l0 19.125l-5.484375 0l0 -22.9375q1.59375 -0.453125 4.15625 -0.859375q2.5625 -0.40625 5.40625 -0.40625q2.453125 0 4.015625 0.640625q1.5625 0.625 2.609375 1.671875q0.5 -0.359375 1.265625 -0.765625q0.78125 -0.421875 1.71875 -0.75q0.953125 -0.34375 2.015625 -0.5625q1.078125 -0.234375 2.15625 -0.234375q2.765625 0 4.5625 0.796875q1.796875 0.78125 2.8125 2.21875q1.015625 1.421875 1.390625 3.4375q0.390625 2.015625 0.390625 4.421875l0 13.328125l-5.484375 0l0 -12.46875q0 -3.71875 -0.90625 -5.359375q-0.90625 -1.65625 -3.484375 -1.65625q-1.3125 0 -2.5 0.4375q-1.171875 0.421875 -1.765625 0.828125q0.359375 1.125 0.5 2.40625q0.140625 1.265625 0.140625 2.71875l0 13.09375l-5.484375 0l0 -12.46875zm31.224426 12.46875l-5.484375 0l0 -23.703125l5.484375 0l0 23.703125zm0.59375 -30.640625q0 1.546875 -1.0 2.453125q-1.0 0.90625 -2.359375 0.90625q-1.40625 0 -2.40625 -0.90625q-0.984375 -0.90625 -0.984375 -2.453125q0 -1.59375 0.984375 -2.5q1.0 -0.90625 2.40625 -0.90625q1.359375 0 2.359375 0.90625q1.0 0.90625 1.0 2.5zm6.119934 0.671875l5.484375 -0.90625l0 7.171875l8.4375 0l0 4.578125l-8.4375 0l0 9.65625q0 2.84375 0.90625 4.078125q0.90625 1.21875 3.078125 1.21875q1.5 0 2.65625 -0.3125q1.15625 -0.328125 1.828125 -0.59375l0.90625 4.359375q-0.9375 0.40625 -2.484375 0.828125q-1.546875 0.4375 -3.625 0.4375q-2.546875 0 -4.25 -0.671875q-1.6875 -0.6875 -2.6875 -1.984375q-1.0 -1.296875 -1.40625 -3.125q-0.40625 -1.84375 -0.40625 -4.1875l0 -20.546875zm50.18048 2.09375q0.71875 2.453125 1.53125 5.109375q0.828125 2.640625 1.703125 5.296875q0.890625 2.640625 1.765625 5.203125q0.890625 2.5625 1.703125 4.828125q0.6875 -2.4375 1.3125 -5.3125q0.640625 -2.890625 1.265625 -5.984375q0.640625 -3.109375 1.25 -6.328125q0.609375 -3.21875 1.15625 -6.34375l5.890625 0q-1.578125 8.515625 -3.53125 16.390625q-1.953125 7.859375 -4.34375 15.015625l-5.4375 0q-3.546875 -9.15625 -6.859375 -19.984375q-1.671875 5.484375 -3.390625 10.421875q-1.71875 4.9375 -3.453125 9.5625l-5.4375 0q-2.4375 -7.15625 -4.375 -15.015625q-1.921875 -7.875 -3.5 -16.390625l6.109375 0q0.546875 3.078125 1.15625 6.296875q0.609375 3.21875 1.265625 6.328125q0.65625 3.09375 1.328125 6.0q0.6875 2.90625 1.375 5.34375q0.859375 -2.3125 1.734375 -4.875q0.890625 -2.5625 1.75 -5.203125q0.859375 -2.65625 1.65625 -5.28125q0.796875 -2.625 1.484375 -5.078125l4.890625 0zm42.70337 16.0q0 2.8125 -0.828125 5.125q-0.8125 2.3125 -2.3125 3.953125q-1.484375 1.625 -3.59375 2.53125q-2.109375 0.90625 -4.65625 0.90625q-2.53125 0 -4.625 -0.90625q-2.078125 -0.90625 -3.578125 -2.53125q-1.484375 -1.640625 -2.328125 -3.953125q-0.84375 -2.3125 -0.84375 -5.125q0 -2.8125 0.84375 -5.09375q0.84375 -2.296875 2.359375 -3.921875q1.515625 -1.640625 3.59375 -2.515625q2.09375 -0.890625 4.578125 -0.890625q2.5 0 4.609375 0.890625q2.109375 0.875 3.59375 2.515625q1.5 1.625 2.34375 3.921875q0.84375 2.28125 0.84375 5.09375zm-5.625 0q0 -3.53125 -1.53125 -5.59375q-1.515625 -2.0625 -4.234375 -2.0625q-2.71875 0 -4.234375 2.0625q-1.515625 2.0625 -1.515625 5.59375q0 3.578125 1.515625 5.671875q1.515625 2.078125 4.234375 2.078125q2.71875 0 4.234375 -2.078125q1.53125 -2.09375 1.53125 -5.671875zm24.79364 -6.890625q-0.6875 -0.234375 -1.890625 -0.46875q-1.187439 -0.25 -2.781189 -0.25q-0.90625 0 -1.921875 0.1875q-1.015625 0.171875 -1.4375 0.296875l0 19.0l-5.484375 0l0 -22.578125q1.59375 -0.578125 3.96875 -1.09375q2.390625 -0.53125 5.28125 -0.53125q0.546875 0 1.265625 0.078125q0.73431396 0.0625 1.453064 0.171875q0.734375 0.109375 1.40625 0.265625q0.6875 0.15625 1.09375 0.296875l-0.953125 4.625zm10.236084 4.3125q1.046875 -1.09375 2.21875 -2.34375q1.1875 -1.25 2.3125 -2.484375q1.140625 -1.25 2.15625 -2.40625q1.03125 -1.15625 1.75 -2.015625l6.484375 0q-2.265625 2.53125 -4.78125 5.25q-2.515625 2.71875 -5.0625 5.3125q1.359375 1.125 2.859375 2.734375q1.5 1.609375 2.90625 3.421875q1.40625 1.8125 2.625 3.625q1.21875 1.8125 2.046875 3.359375l-6.359375 0q-0.8125 -1.40625 -1.875 -2.9375q-1.0625 -1.546875 -2.296875 -3.0q-1.21875 -1.453125 -2.484375 -2.734375q-1.265625 -1.296875 -2.5 -2.203125l0 10.875l-5.484375 0l0 -34.265625l5.484375 -0.90625l0 20.71875zm29.241333 -20.71875q1.71875 0 2.921875 0.28125q1.203125 0.265625 1.890625 0.53125l-0.875 4.4375q-0.625 -0.21875 -1.515625 -0.390625q-0.875 -0.1875 -1.921875 -0.1875q-2.71875 0 -3.75 1.453125q-1.015625 1.4375 -1.015625 3.75l0 1.59375l8.703125 0l0 4.578125l-8.703125 0l0 19.125l-5.484375 0l0 -25.390625q0 -4.609375 2.40625 -7.1875q2.40625 -2.59375 7.34375 -2.59375zm16.90625 35.625q-2.4375 -0.046875 -4.046875 -0.546875q-1.609375 -0.5 -2.5625 -1.421875q-0.953125 -0.9375 -1.34375 -2.3125q-0.390625 -1.390625 -0.390625 -3.15625l0 -27.28125l5.484375 -0.90625l0 27.15625q0 0.984375 0.15625 1.671875q0.171875 0.671875 0.578125 1.15625q0.40625 0.46875 1.109375 0.71875q0.703125 0.25 1.78125 0.390625l-0.765625 4.53125zm26.662598 -12.328125q0 2.8125 -0.828125 5.125q-0.8125 2.3125 -2.3125 3.953125q-1.484375 1.625 -3.59375 2.53125q-2.109375 0.90625 -4.65625 0.90625q-2.53125 0 -4.625 -0.90625q-2.078125 -0.90625 -3.578125 -2.53125q-1.484375 -1.640625 -2.328125 -3.953125q-0.84375 -2.3125 -0.84375 -5.125q0 -2.8125 0.84375 -5.09375q0.84375 -2.296875 2.359375 -3.921875q1.515625 -1.640625 3.59375 -2.515625q2.09375 -0.890625 4.578125 -0.890625q2.5 0 4.609375 0.890625q2.109375 0.875 3.59375 2.515625q1.5 1.625 2.34375 3.921875q0.84375 2.28125 0.84375 5.09375zm-5.625 0q0 -3.53125 -1.53125 -5.59375q-1.515625 -2.0625 -4.234375 -2.0625q-2.71875 0 -4.234375 2.0625q-1.515625 2.0625 -1.515625 5.59375q0 3.578125 1.515625 5.671875q1.515625 2.078125 4.234375 2.078125q2.71875 0 4.234375 -2.078125q1.53125 -2.09375 1.53125 -5.671875zm24.920044 -3.03125q-1.03125 3.984375 -2.234375 7.765625q-1.203125 3.78125 -2.375 7.140625l-4.5 0q-0.90625 -2.078125 -1.90625 -4.75q-0.984375 -2.6875 -1.984375 -5.71875q-1.0 -3.03125 -2.0 -6.390625q-1.0 -3.359375 -1.9375 -6.84375l5.796875 0q0.40625 1.90625 0.953125 4.109375q0.546875 2.1875 1.125 4.484375q0.59375 2.28125 1.21875 4.46875q0.640625 2.171875 1.28125 3.984375q0.671875 -2.09375 1.328125 -4.3125q0.65625 -2.21875 1.25 -4.4375q0.59375 -2.21875 1.109375 -4.328125q0.53125 -2.109375 0.9375 -3.96875l4.21875 0q0.40625 1.859375 0.890625 3.96875q0.5 2.109375 1.0625 4.328125q0.578125 2.21875 1.234375 4.4375q0.65625 2.21875 1.34375 4.3125q0.578125 -1.8125 1.21875 -3.984375q0.640625 -2.1875 1.25 -4.46875q0.609375 -2.296875 1.15625 -4.484375q0.546875 -2.203125 0.953125 -4.109375l5.65625 0q-0.953125 3.484375 -1.953125 6.84375q-0.984375 3.359375 -1.984375 6.390625q-1.0 3.03125 -2.0 5.71875q-1.0 2.671875 -1.953125 4.75l-4.4375 0q-1.171875 -3.359375 -2.421875 -7.140625q-1.25 -3.78125 -2.296875 -7.765625z" fill-rule="nonzero"/></g></svg>